<?xml version="1.0" encoding="utf-8" standalone="no"?>
<!DOCTYPE svg PUBLIC "-//W3C//DTD SVG 1.1//EN"
  "http://www.w3.org/Graphics/SVG/1.1/DTD/svg11.dtd">
<svg xmlns:xlink="http://www.w3.org/1999/xlink" width="446.4pt" height="302.4pt" viewBox="0 0 446.4 302.4" xmlns="http://www.w3.org/2000/svg" version="1.1">
 <metadata>
  <rdf:RDF xmlns:dc="http://purl.org/dc/elements/1.1/" xmlns:cc="http://creativecommons.org/ns#" xmlns:rdf="http://www.w3.org/1999/02/22-rdf-syntax-ns#">
   <cc:Work>
    <dc:type rdf:resource="http://purl.org/dc/dcmitype/StillImage"/>
    <dc:date>2026-02-12T17:47:05.160528</dc:date>
    <dc:format>image/svg+xml</dc:format>
    <dc:creator>
     <cc:Agent>
      <dc:title>Matplotlib v3.10.8, https://matplotlib.org/</dc:title>
     </cc:Agent>
    </dc:creator>
   </cc:Work>
  </rdf:RDF>
 </metadata>
 <defs>
  <style type="text/css">*{stroke-linejoin: round; stroke-linecap: butt}</style>
 </defs>
 <g id="figure_1">
  <g id="patch_1">
   <path d="M 0 302.4 
L 446.4 302.4 
L 446.4 0 
L 0 0 
z
" style="fill: #ffffff"/>
  </g>
  <g id="axes_1">
   <g id="patch_2">
    <path d="M 60.719428 257.509458 
L 396.607826 257.509458 
L 396.607826 12.388862 
L 60.719428 12.388862 
z
" style="fill: #ffffff"/>
   </g>
   <g id="matplotlib.axis_1">
    <g id="xtick_1">
     <g id="line2d_1">
      <path d="M 64.333909 257.509458 
L 64.333909 12.388862 
" clip-path="url(#pe177631192)" style="fill: none; stroke-dasharray: 2.22,0.96; stroke-dashoffset: 0; stroke: #808080; stroke-opacity: 0.7; stroke-width: 0.6"/>
     </g>
     <g id="line2d_2">
      <defs>
       <path id="mde71094720" d="M 0 0 
L 0 -4 
" style="stroke: #000000; stroke-width: 0.8"/>
      </defs>
      <g>
       <use xlink:href="#mde71094720" x="64.333909" y="257.509458" style="stroke: #000000; stroke-width: 0.8"/>
      </g>
     </g>
     <g id="text_1">
      <!-- $\mathdefault{10^{-1}}$ -->
      <g transform="translate(50.334413 271.387183) scale(0.15 -0.15)">
       <defs>
        <path id="CMR17-31" d="M 1702 4058 
C 1702 4192 1696 4192 1606 4192 
C 1357 3916 979 3827 621 3827 
C 602 3827 570 3827 563 3808 
C 557 3795 557 3782 557 3648 
C 755 3648 1088 3686 1344 3839 
L 1344 461 
C 1344 236 1331 160 781 160 
L 589 160 
L 589 0 
C 896 0 1216 0 1523 0 
C 1830 0 2150 0 2458 0 
L 2458 160 
L 2266 160 
C 1715 160 1702 230 1702 458 
L 1702 4058 
z
" transform="scale(0.015625)"/>
        <path id="CMR17-30" d="M 2688 2025 
C 2688 2416 2682 3080 2413 3591 
C 2176 4039 1798 4198 1466 4198 
C 1158 4198 768 4058 525 3597 
C 269 3118 243 2524 243 2025 
C 243 1661 250 1106 448 619 
C 723 -39 1216 -128 1466 -128 
C 1760 -128 2208 -7 2470 600 
C 2662 1042 2688 1559 2688 2025 
z
M 1466 -26 
C 1056 -26 813 325 723 812 
C 653 1188 653 1738 653 2096 
C 653 2588 653 2997 736 3387 
C 858 3929 1216 4096 1466 4096 
C 1728 4096 2067 3923 2189 3400 
C 2272 3036 2278 2607 2278 2096 
C 2278 1680 2278 1169 2202 792 
C 2067 95 1690 -26 1466 -26 
z
" transform="scale(0.015625)"/>
        <path id="CMSY10-0" d="M 4218 1472 
C 4326 1472 4442 1472 4442 1600 
C 4442 1728 4326 1728 4218 1728 
L 755 1728 
C 646 1728 531 1728 531 1600 
C 531 1472 646 1472 755 1472 
L 4218 1472 
z
" transform="scale(0.015625)"/>
       </defs>
       <use xlink:href="#CMR17-31" transform="scale(0.996264)"/>
       <use xlink:href="#CMR17-30" transform="translate(45.690477 0) scale(0.996264)"/>
       <use xlink:href="#CMSY10-0" transform="translate(91.380954 36.153639) scale(0.697382)"/>
       <use xlink:href="#CMR17-31" transform="translate(145.621947 36.153639) scale(0.697382)"/>
      </g>
     </g>
    </g>
    <g id="xtick_2">
     <g id="line2d_3">
      <path d="M 143.326025 257.509458 
L 143.326025 12.388862 
" clip-path="url(#pe177631192)" style="fill: none; stroke-dasharray: 2.22,0.96; stroke-dashoffset: 0; stroke: #808080; stroke-opacity: 0.7; stroke-width: 0.6"/>
     </g>
     <g id="line2d_4">
      <g>
       <use xlink:href="#mde71094720" x="143.326025" y="257.509458" style="stroke: #000000; stroke-width: 0.8"/>
      </g>
     </g>
     <g id="text_2">
      <!-- $\mathdefault{10^{0}}$ -->
      <g transform="translate(133.394601 271.387183) scale(0.15 -0.15)">
       <use xlink:href="#CMR17-31" transform="scale(0.996264)"/>
       <use xlink:href="#CMR17-30" transform="translate(45.690477 0) scale(0.996264)"/>
       <use xlink:href="#CMR17-30" transform="translate(91.380954 36.153639) scale(0.697382)"/>
      </g>
     </g>
    </g>
    <g id="xtick_3">
     <g id="line2d_5">
      <path d="M 222.31814 257.509458 
L 222.31814 12.388862 
" clip-path="url(#pe177631192)" style="fill: none; stroke-dasharray: 2.22,0.96; stroke-dashoffset: 0; stroke: #808080; stroke-opacity: 0.7; stroke-width: 0.6"/>
     </g>
     <g id="line2d_6">
      <g>
       <use xlink:href="#mde71094720" x="222.31814" y="257.509458" style="stroke: #000000; stroke-width: 0.8"/>
      </g>
     </g>
     <g id="text_3">
      <!-- $\mathdefault{10^{1}}$ -->
      <g transform="translate(212.386716 271.387183) scale(0.15 -0.15)">
       <use xlink:href="#CMR17-31" transform="scale(0.996264)"/>
       <use xlink:href="#CMR17-30" transform="translate(45.690477 0) scale(0.996264)"/>
       <use xlink:href="#CMR17-31" transform="translate(91.380954 36.153639) scale(0.697382)"/>
      </g>
     </g>
    </g>
    <g id="xtick_4">
     <g id="line2d_7">
      <path d="M 301.310255 257.509458 
L 301.310255 12.388862 
" clip-path="url(#pe177631192)" style="fill: none; stroke-dasharray: 2.22,0.96; stroke-dashoffset: 0; stroke: #808080; stroke-opacity: 0.7; stroke-width: 0.6"/>
     </g>
     <g id="line2d_8">
      <g>
       <use xlink:href="#mde71094720" x="301.310255" y="257.509458" style="stroke: #000000; stroke-width: 0.8"/>
      </g>
     </g>
     <g id="text_4">
      <!-- $\mathdefault{10^{2}}$ -->
      <g transform="translate(291.378832 271.387183) scale(0.15 -0.15)">
       <defs>
        <path id="CMR17-32" d="M 2669 989 
L 2554 989 
C 2490 536 2438 459 2413 420 
C 2381 369 1920 369 1830 369 
L 602 369 
C 832 619 1280 1072 1824 1597 
C 2214 1967 2669 2402 2669 3035 
C 2669 3790 2067 4224 1395 4224 
C 691 4224 262 3604 262 3030 
C 262 2780 448 2748 525 2748 
C 589 2748 781 2787 781 3010 
C 781 3207 614 3264 525 3264 
C 486 3264 448 3258 422 3245 
C 544 3790 915 4058 1306 4058 
C 1862 4058 2227 3617 2227 3035 
C 2227 2479 1901 2000 1536 1584 
L 262 146 
L 262 0 
L 2515 0 
L 2669 989 
z
" transform="scale(0.015625)"/>
       </defs>
       <use xlink:href="#CMR17-31" transform="scale(0.996264)"/>
       <use xlink:href="#CMR17-30" transform="translate(45.690477 0) scale(0.996264)"/>
       <use xlink:href="#CMR17-32" transform="translate(91.380954 36.153639) scale(0.697382)"/>
      </g>
     </g>
    </g>
    <g id="xtick_5">
     <g id="line2d_9">
      <path d="M 380.30237 257.509458 
L 380.30237 12.388862 
" clip-path="url(#pe177631192)" style="fill: none; stroke-dasharray: 2.22,0.96; stroke-dashoffset: 0; stroke: #808080; stroke-opacity: 0.7; stroke-width: 0.6"/>
     </g>
     <g id="line2d_10">
      <g>
       <use xlink:href="#mde71094720" x="380.30237" y="257.509458" style="stroke: #000000; stroke-width: 0.8"/>
      </g>
     </g>
     <g id="text_5">
      <!-- $\mathdefault{10^{3}}$ -->
      <g transform="translate(370.370947 271.387183) scale(0.15 -0.15)">
       <defs>
        <path id="CMR17-33" d="M 1414 2157 
C 1984 2157 2234 1662 2234 1090 
C 2234 320 1824 25 1453 25 
C 1114 25 563 194 390 693 
C 422 680 454 680 486 680 
C 640 680 755 782 755 948 
C 755 1133 614 1216 486 1216 
C 378 1216 211 1165 211 926 
C 211 335 787 -128 1466 -128 
C 2176 -128 2720 430 2720 1085 
C 2720 1707 2208 2157 1600 2227 
C 2086 2328 2554 2756 2554 3329 
C 2554 3820 2048 4179 1472 4179 
C 890 4179 378 3829 378 3329 
C 378 3110 544 3072 627 3072 
C 762 3072 877 3155 877 3321 
C 877 3486 762 3569 627 3569 
C 602 3569 570 3569 544 3557 
C 730 3959 1235 4032 1459 4032 
C 1683 4032 2106 3925 2106 3320 
C 2106 3143 2080 2828 1862 2550 
C 1670 2304 1453 2304 1242 2284 
C 1210 2284 1062 2269 1037 2269 
C 992 2263 966 2257 966 2208 
C 966 2163 973 2157 1101 2157 
L 1414 2157 
z
" transform="scale(0.015625)"/>
       </defs>
       <use xlink:href="#CMR17-31" transform="scale(0.996264)"/>
       <use xlink:href="#CMR17-30" transform="translate(45.690477 0) scale(0.996264)"/>
       <use xlink:href="#CMR17-33" transform="translate(91.380954 36.153639) scale(0.697382)"/>
      </g>
     </g>
    </g>
    <g id="xtick_6">
     <g id="line2d_11">
      <defs>
       <path id="m4ed2e0ece2" d="M 0 0 
L 0 2 
" style="stroke: #000000; stroke-width: 0.6"/>
      </defs>
      <g>
       <use xlink:href="#m4ed2e0ece2" x="60.719428" y="257.509458" style="stroke: #000000; stroke-width: 0.6"/>
      </g>
     </g>
    </g>
    <g id="xtick_7">
     <g id="line2d_12">
      <g>
       <use xlink:href="#m4ed2e0ece2" x="88.112906" y="257.509458" style="stroke: #000000; stroke-width: 0.6"/>
      </g>
     </g>
    </g>
    <g id="xtick_8">
     <g id="line2d_13">
      <g>
       <use xlink:href="#m4ed2e0ece2" x="102.022727" y="257.509458" style="stroke: #000000; stroke-width: 0.6"/>
      </g>
     </g>
    </g>
    <g id="xtick_9">
     <g id="line2d_14">
      <g>
       <use xlink:href="#m4ed2e0ece2" x="111.891902" y="257.509458" style="stroke: #000000; stroke-width: 0.6"/>
      </g>
     </g>
    </g>
    <g id="xtick_10">
     <g id="line2d_15">
      <g>
       <use xlink:href="#m4ed2e0ece2" x="119.547029" y="257.509458" style="stroke: #000000; stroke-width: 0.6"/>
      </g>
     </g>
    </g>
    <g id="xtick_11">
     <g id="line2d_16">
      <g>
       <use xlink:href="#m4ed2e0ece2" x="125.801723" y="257.509458" style="stroke: #000000; stroke-width: 0.6"/>
      </g>
     </g>
    </g>
    <g id="xtick_12">
     <g id="line2d_17">
      <g>
       <use xlink:href="#m4ed2e0ece2" x="131.089991" y="257.509458" style="stroke: #000000; stroke-width: 0.6"/>
      </g>
     </g>
    </g>
    <g id="xtick_13">
     <g id="line2d_18">
      <g>
       <use xlink:href="#m4ed2e0ece2" x="135.670898" y="257.509458" style="stroke: #000000; stroke-width: 0.6"/>
      </g>
     </g>
    </g>
    <g id="xtick_14">
     <g id="line2d_19">
      <g>
       <use xlink:href="#m4ed2e0ece2" x="139.711544" y="257.509458" style="stroke: #000000; stroke-width: 0.6"/>
      </g>
     </g>
    </g>
    <g id="xtick_15">
     <g id="line2d_20">
      <g>
       <use xlink:href="#m4ed2e0ece2" x="167.105021" y="257.509458" style="stroke: #000000; stroke-width: 0.6"/>
      </g>
     </g>
    </g>
    <g id="xtick_16">
     <g id="line2d_21">
      <g>
       <use xlink:href="#m4ed2e0ece2" x="181.014842" y="257.509458" style="stroke: #000000; stroke-width: 0.6"/>
      </g>
     </g>
    </g>
    <g id="xtick_17">
     <g id="line2d_22">
      <g>
       <use xlink:href="#m4ed2e0ece2" x="190.884017" y="257.509458" style="stroke: #000000; stroke-width: 0.6"/>
      </g>
     </g>
    </g>
    <g id="xtick_18">
     <g id="line2d_23">
      <g>
       <use xlink:href="#m4ed2e0ece2" x="198.539144" y="257.509458" style="stroke: #000000; stroke-width: 0.6"/>
      </g>
     </g>
    </g>
    <g id="xtick_19">
     <g id="line2d_24">
      <g>
       <use xlink:href="#m4ed2e0ece2" x="204.793838" y="257.509458" style="stroke: #000000; stroke-width: 0.6"/>
      </g>
     </g>
    </g>
    <g id="xtick_20">
     <g id="line2d_25">
      <g>
       <use xlink:href="#m4ed2e0ece2" x="210.082106" y="257.509458" style="stroke: #000000; stroke-width: 0.6"/>
      </g>
     </g>
    </g>
    <g id="xtick_21">
     <g id="line2d_26">
      <g>
       <use xlink:href="#m4ed2e0ece2" x="214.663013" y="257.509458" style="stroke: #000000; stroke-width: 0.6"/>
      </g>
     </g>
    </g>
    <g id="xtick_22">
     <g id="line2d_27">
      <g>
       <use xlink:href="#m4ed2e0ece2" x="218.703659" y="257.509458" style="stroke: #000000; stroke-width: 0.6"/>
      </g>
     </g>
    </g>
    <g id="xtick_23">
     <g id="line2d_28">
      <g>
       <use xlink:href="#m4ed2e0ece2" x="246.097136" y="257.509458" style="stroke: #000000; stroke-width: 0.6"/>
      </g>
     </g>
    </g>
    <g id="xtick_24">
     <g id="line2d_29">
      <g>
       <use xlink:href="#m4ed2e0ece2" x="260.006957" y="257.509458" style="stroke: #000000; stroke-width: 0.6"/>
      </g>
     </g>
    </g>
    <g id="xtick_25">
     <g id="line2d_30">
      <g>
       <use xlink:href="#m4ed2e0ece2" x="269.876132" y="257.509458" style="stroke: #000000; stroke-width: 0.6"/>
      </g>
     </g>
    </g>
    <g id="xtick_26">
     <g id="line2d_31">
      <g>
       <use xlink:href="#m4ed2e0ece2" x="277.531259" y="257.509458" style="stroke: #000000; stroke-width: 0.6"/>
      </g>
     </g>
    </g>
    <g id="xtick_27">
     <g id="line2d_32">
      <g>
       <use xlink:href="#m4ed2e0ece2" x="283.785953" y="257.509458" style="stroke: #000000; stroke-width: 0.6"/>
      </g>
     </g>
    </g>
    <g id="xtick_28">
     <g id="line2d_33">
      <g>
       <use xlink:href="#m4ed2e0ece2" x="289.074221" y="257.509458" style="stroke: #000000; stroke-width: 0.6"/>
      </g>
     </g>
    </g>
    <g id="xtick_29">
     <g id="line2d_34">
      <g>
       <use xlink:href="#m4ed2e0ece2" x="293.655128" y="257.509458" style="stroke: #000000; stroke-width: 0.6"/>
      </g>
     </g>
    </g>
    <g id="xtick_30">
     <g id="line2d_35">
      <g>
       <use xlink:href="#m4ed2e0ece2" x="297.695774" y="257.509458" style="stroke: #000000; stroke-width: 0.6"/>
      </g>
     </g>
    </g>
    <g id="xtick_31">
     <g id="line2d_36">
      <g>
       <use xlink:href="#m4ed2e0ece2" x="325.089251" y="257.509458" style="stroke: #000000; stroke-width: 0.6"/>
      </g>
     </g>
    </g>
    <g id="xtick_32">
     <g id="line2d_37">
      <g>
       <use xlink:href="#m4ed2e0ece2" x="338.999072" y="257.509458" style="stroke: #000000; stroke-width: 0.6"/>
      </g>
     </g>
    </g>
    <g id="xtick_33">
     <g id="line2d_38">
      <g>
       <use xlink:href="#m4ed2e0ece2" x="348.868247" y="257.509458" style="stroke: #000000; stroke-width: 0.6"/>
      </g>
     </g>
    </g>
    <g id="xtick_34">
     <g id="line2d_39">
      <g>
       <use xlink:href="#m4ed2e0ece2" x="356.523374" y="257.509458" style="stroke: #000000; stroke-width: 0.6"/>
      </g>
     </g>
    </g>
    <g id="xtick_35">
     <g id="line2d_40">
      <g>
       <use xlink:href="#m4ed2e0ece2" x="362.778068" y="257.509458" style="stroke: #000000; stroke-width: 0.6"/>
      </g>
     </g>
    </g>
    <g id="xtick_36">
     <g id="line2d_41">
      <g>
       <use xlink:href="#m4ed2e0ece2" x="368.066337" y="257.509458" style="stroke: #000000; stroke-width: 0.6"/>
      </g>
     </g>
    </g>
    <g id="xtick_37">
     <g id="line2d_42">
      <g>
       <use xlink:href="#m4ed2e0ece2" x="372.647243" y="257.509458" style="stroke: #000000; stroke-width: 0.6"/>
      </g>
     </g>
    </g>
    <g id="xtick_38">
     <g id="line2d_43">
      <g>
       <use xlink:href="#m4ed2e0ece2" x="376.687889" y="257.509458" style="stroke: #000000; stroke-width: 0.6"/>
      </g>
     </g>
    </g>
    <g id="text_6">
     <!-- Angular frequency $\omega$ [rad/s] -->
     <g transform="translate(133.240116 290.980046) scale(0.17 -0.17)">
      <defs>
       <path id="CMR17-41" d="M 2323 4378 
C 2291 4461 2278 4480 2214 4480 
C 2150 4480 2138 4461 2106 4378 
L 749 566 
C 627 223 371 153 147 153 
L 147 -13 
C 262 0 518 0 640 0 
C 800 0 1056 0 1210 -13 
L 1210 153 
C 909 153 864 361 864 439 
C 864 497 877 530 890 569 
L 1229 1536 
L 2906 1536 
L 3290 442 
C 3322 365 3322 352 3322 327 
C 3322 153 3046 153 2925 153 
L 2925 0 
C 3110 0 3443 0 3642 0 
C 3808 0 4128 0 4282 -13 
L 4282 153 
C 3942 153 3827 153 3744 387 
L 2323 4378 
z
M 2067 3893 
L 2848 1702 
L 1286 1702 
L 2067 3893 
z
" transform="scale(0.015625)"/>
       <path id="CMR17-6e" d="M 2656 1933 
C 2656 2259 2592 2790 1837 2790 
C 1331 2790 1069 2400 973 2144 
L 966 2144 
L 966 2790 
L 211 2720 
L 211 2554 
C 589 2554 646 2515 646 2208 
L 646 428 
C 646 184 621 153 211 153 
L 211 -13 
C 365 0 646 0 813 0 
C 979 0 1267 0 1421 -13 
L 1421 153 
C 1011 153 986 178 986 428 
L 986 1658 
C 986 2247 1344 2688 1792 2688 
C 2266 2688 2317 2266 2317 1958 
L 2317 428 
C 2317 184 2291 153 1882 153 
L 1882 -13 
C 2035 0 2317 0 2483 0 
C 2650 0 2938 0 3091 -13 
L 3091 153 
C 2682 153 2656 178 2656 428 
L 2656 1933 
z
" transform="scale(0.015625)"/>
       <path id="CMR17-67" d="M 710 1164 
C 832 1068 1043 960 1299 960 
C 1805 960 2240 1357 2240 1888 
C 2240 2054 2189 2310 1997 2509 
C 2176 2692 2438 2752 2586 2752 
C 2611 2752 2650 2752 2682 2734 
C 2656 2728 2598 2703 2598 2605 
C 2598 2527 2656 2471 2739 2471 
C 2835 2471 2886 2533 2886 2614 
C 2886 2731 2790 2854 2586 2854 
C 2330 2854 2106 2738 1926 2580 
C 1734 2753 1504 2816 1299 2816 
C 794 2816 358 2419 358 1888 
C 358 1522 570 1292 634 1228 
C 442 1004 442 743 442 711 
C 442 545 506 302 723 168 
C 390 85 128 -169 128 -486 
C 128 -943 736 -1280 1466 -1280 
C 2170 -1280 2803 -956 2803 -479 
C 2803 384 1856 384 1363 384 
C 1216 384 954 384 922 391 
C 723 423 589 602 589 826 
C 589 883 589 1024 710 1164 
z
M 1299 1068 
C 736 1068 736 1760 736 1889 
C 736 2016 736 2708 1299 2708 
C 1862 2708 1862 2016 1862 1889 
C 1862 1760 1862 1068 1299 1068 
z
M 1466 -1171 
C 826 -1171 384 -835 384 -486 
C 384 -289 493 -105 634 -4 
C 794 104 858 104 1293 104 
C 1818 104 2547 104 2547 -486 
C 2547 -835 2106 -1171 1466 -1171 
z
" transform="scale(0.015625)"/>
       <path id="CMR17-75" d="M 1882 2693 
L 1882 2528 
C 2259 2528 2317 2489 2317 2186 
L 2317 1032 
C 2317 500 2029 38 1555 38 
C 1030 38 986 348 986 678 
L 986 2763 
L 211 2693 
L 211 2528 
C 467 2528 640 2528 646 2274 
L 646 1058 
C 646 633 646 361 813 183 
C 896 101 1056 -64 1517 -64 
C 2061 -64 2272 377 2323 506 
L 2330 506 
L 2330 -63 
L 3091 -63 
L 3091 128 
C 2714 128 2656 166 2656 473 
L 2656 2763 
L 1882 2693 
z
" transform="scale(0.015625)"/>
       <path id="CMR17-6c" d="M 979 4396 
L 218 4326 
L 218 4160 
C 595 4160 653 4122 653 3817 
L 653 426 
C 653 184 627 153 218 153 
L 218 -13 
C 371 0 653 0 813 0 
C 979 0 1261 0 1414 -13 
L 1414 153 
C 1005 153 979 178 979 426 
L 979 4396 
z
" transform="scale(0.015625)"/>
       <path id="CMR17-61" d="M 2304 1653 
C 2304 2072 2304 2294 2035 2543 
C 1798 2752 1523 2816 1306 2816 
C 800 2816 435 2407 435 1971 
C 435 1728 627 1728 666 1728 
C 749 1728 896 1778 896 1954 
C 896 2112 774 2181 666 2181 
C 640 2181 608 2174 589 2168 
C 723 2592 1069 2714 1293 2714 
C 1613 2714 1965 2429 1965 1885 
L 1965 1600 
C 1587 1600 1133 1549 774 1357 
C 371 1133 256 813 256 570 
C 256 77 832 -64 1171 -64 
C 1523 -64 1850 139 1990 511 
C 2003 233 2182 -18 2464 -18 
C 2598 -18 2938 70 2938 567 
L 2938 920 
L 2822 920 
L 2822 562 
C 2822 178 2650 128 2566 128 
C 2304 128 2304 458 2304 738 
L 2304 1653 
z
M 1965 870 
C 1965 317 1568 38 1216 38 
C 896 38 646 275 646 570 
C 646 761 730 1100 1101 1305 
C 1408 1478 1760 1504 1965 1504 
L 1965 870 
z
" transform="scale(0.015625)"/>
       <path id="CMR17-72" d="M 960 1497 
C 960 2112 1222 2688 1702 2688 
C 1747 2688 1792 2682 1837 2662 
C 1837 2662 1696 2617 1696 2452 
C 1696 2298 1818 2234 1914 2234 
C 1990 2234 2131 2279 2131 2458 
C 2131 2663 1926 2790 1709 2790 
C 1222 2790 1011 2317 947 2093 
L 941 2093 
L 941 2790 
L 198 2720 
L 198 2554 
C 576 2554 634 2515 634 2208 
L 634 428 
C 634 184 608 153 198 153 
L 198 -13 
C 352 0 646 0 813 0 
C 998 0 1325 0 1498 -13 
L 1498 153 
C 1037 153 960 153 960 440 
L 960 1497 
z
" transform="scale(0.015625)"/>
       <path id="CMR17-66" d="M 979 2560 
L 1709 2560 
L 1709 2725 
L 966 2725 
L 966 3494 
C 966 4022 1235 4352 1510 4352 
C 1594 4352 1690 4327 1754 4282 
C 1702 4269 1568 4225 1568 4067 
C 1568 3901 1696 3850 1786 3850 
C 1875 3850 2003 3901 2003 4067 
C 2003 4308 1773 4454 1517 4454 
C 1152 4454 653 4156 653 3481 
L 653 2725 
L 141 2725 
L 141 2560 
L 653 2560 
L 653 427 
C 653 184 627 153 218 153 
L 218 -13 
C 371 0 666 0 832 0 
C 1018 0 1344 0 1517 -13 
L 1517 153 
C 1056 153 979 153 979 439 
L 979 2560 
z
" transform="scale(0.015625)"/>
       <path id="CMR17-65" d="M 2438 1472 
C 2464 1498 2464 1511 2464 1576 
C 2464 2238 2118 2816 1389 2816 
C 710 2816 173 2169 173 1383 
C 173 551 781 -64 1459 -64 
C 2176 -64 2458 607 2458 740 
C 2458 784 2419 784 2406 784 
C 2362 784 2355 771 2330 696 
C 2189 265 1837 51 1504 51 
C 1229 51 954 203 781 480 
C 582 803 582 1176 582 1472 
L 2438 1472 
z
M 589 1568 
C 634 2505 1126 2714 1382 2714 
C 1818 2714 2112 2297 2118 1568 
L 589 1568 
z
" transform="scale(0.015625)"/>
       <path id="CMR17-71" d="M 2630 2802 
L 2528 2802 
L 2336 2172 
C 2189 2509 1920 2802 1491 2802 
C 838 2802 211 2223 211 1383 
C 211 548 800 -38 1440 -38 
C 1933 -38 2208 338 2291 478 
L 2291 -789 
C 2291 -1031 2266 -1063 1856 -1063 
L 1856 -1228 
C 2010 -1216 2291 -1216 2458 -1216 
C 2624 -1216 2912 -1216 3066 -1228 
L 3066 -1063 
C 2656 -1063 2630 -1037 2630 -789 
L 2630 2802 
z
M 2304 886 
C 2304 612 2074 357 2054 338 
C 1856 115 1626 64 1472 64 
C 992 64 621 669 621 1375 
C 621 2121 1043 2688 1536 2688 
C 2048 2688 2304 2108 2304 1777 
L 2304 886 
z
" transform="scale(0.015625)"/>
       <path id="CMR17-63" d="M 2234 2240 
C 2112 2240 1933 2240 1933 2017 
C 1933 1838 2080 1787 2163 1787 
C 2208 1787 2394 1807 2394 2024 
C 2394 2467 1958 2803 1466 2803 
C 787 2803 211 2178 211 1363 
C 211 516 813 -64 1466 -64 
C 2259 -64 2458 677 2458 748 
C 2458 774 2451 793 2406 793 
C 2362 793 2355 787 2330 703 
C 2163 180 1798 51 1523 51 
C 1114 51 621 427 621 1369 
C 621 2338 1094 2688 1472 2688 
C 1722 2688 2093 2573 2234 2240 
z
" transform="scale(0.015625)"/>
       <path id="CMR17-79" d="M 2496 2197 
C 2656 2586 2944 2586 3034 2586 
L 3034 2752 
C 2912 2752 2752 2752 2630 2752 
C 2496 2752 2285 2752 2157 2758 
L 2157 2592 
C 2400 2573 2406 2394 2406 2343 
C 2406 2280 2394 2248 2362 2171 
L 1664 449 
L 902 2306 
C 870 2382 870 2426 870 2433 
C 870 2573 1018 2586 1171 2586 
L 1171 2758 
C 1018 2752 742 2752 582 2752 
C 410 2752 205 2752 64 2758 
L 64 2586 
C 410 2586 448 2554 531 2350 
L 1485 15 
C 1197 -738 1030 -1178 627 -1178 
C 557 -1178 397 -1159 282 -1044 
C 429 -1031 493 -942 493 -833 
C 493 -725 416 -629 288 -629 
C 147 -629 77 -725 77 -840 
C 77 -1095 339 -1280 627 -1280 
C 998 -1280 1229 -922 1357 -604 
L 2496 2197 
z
" transform="scale(0.015625)"/>
       <path id="CMMI12-21" d="M 3802 2395 
C 3802 2580 3750 2816 3526 2816 
C 3398 2816 3251 2657 3251 2529 
C 3251 2472 3277 2434 3328 2376 
C 3424 2268 3546 2096 3546 1797 
C 3546 1567 3405 1204 3302 1007 
C 3123 656 2829 357 2496 357 
C 2093 357 1939 615 1869 975 
C 1939 1143 2086 1560 2086 1728 
C 2086 1798 2061 1856 1978 1856 
C 1933 1856 1882 1831 1850 1779 
C 1760 1638 1677 1129 1683 994 
C 1562 756 1216 357 806 357 
C 378 357 262 733 262 1096 
C 262 1758 678 2338 794 2497 
C 858 2593 902 2657 902 2669 
C 902 2714 877 2784 819 2784 
C 717 2784 685 2701 634 2625 
C 307 2121 77 1414 77 803 
C 77 408 224 -64 704 -64 
C 1235 -64 1568 391 1702 634 
C 1754 275 1946 -64 2413 -64 
C 2899 -64 3206 363 3437 879 
C 3603 1249 3802 2045 3802 2395 
z
" transform="scale(0.015625)"/>
       <path id="CMR17-5b" d="M 1504 -1600 
L 1504 -1377 
L 902 -1377 
L 902 4544 
L 1504 4544 
L 1504 4767 
L 678 4767 
L 678 -1600 
L 1504 -1600 
z
" transform="scale(0.015625)"/>
       <path id="CMR17-64" d="M 1869 4326 
L 1869 4160 
C 2246 4160 2304 4122 2304 3820 
L 2304 2345 
C 2278 2377 2016 2790 1498 2790 
C 845 2790 211 2208 211 1364 
C 211 525 806 -64 1434 -64 
C 1978 -64 2259 337 2291 380 
L 2291 -63 
L 3066 -63 
L 3066 128 
C 2688 128 2630 166 2630 473 
L 2630 4396 
L 1869 4326 
z
M 2291 755 
C 2291 563 2176 390 2029 262 
C 1811 70 1594 38 1472 38 
C 1286 38 621 134 621 1356 
C 621 2612 1363 2688 1530 2688 
C 1824 2688 2061 2522 2208 2291 
C 2291 2157 2291 2138 2291 2023 
L 2291 755 
z
" transform="scale(0.015625)"/>
       <path id="CMR17-2f" d="M 2605 4545 
C 2637 4627 2637 4640 2637 4653 
C 2637 4729 2579 4768 2528 4768 
C 2451 4768 2426 4717 2400 4640 
L 326 -1377 
C 294 -1460 294 -1473 294 -1486 
C 294 -1562 352 -1600 403 -1600 
C 480 -1600 506 -1549 531 -1473 
L 2605 4545 
z
" transform="scale(0.015625)"/>
       <path id="CMR17-73" d="M 1978 2697 
C 1978 2813 1971 2819 1933 2819 
C 1907 2819 1901 2813 1824 2717 
C 1805 2691 1747 2626 1728 2601 
C 1523 2819 1235 2819 1126 2819 
C 416 2819 160 2447 160 2076 
C 160 1498 813 1365 998 1325 
C 1402 1243 1542 1217 1677 1101 
C 1760 1025 1901 884 1901 654 
C 1901 384 1747 38 1158 38 
C 602 38 403 460 288 1021 
C 269 1110 269 1117 218 1117 
C 166 1117 160 1110 160 983 
L 160 63 
C 160 -51 166 -58 205 -58 
C 237 -58 243 -51 275 0 
C 314 57 410 211 448 276 
C 576 103 800 -64 1158 -64 
C 1792 -64 2131 283 2131 784 
C 2131 1112 1958 1285 1875 1362 
C 1683 1561 1459 1606 1190 1657 
C 838 1735 390 1825 390 2217 
C 390 2383 480 2737 1126 2737 
C 1811 2737 1850 2094 1862 1888 
C 1869 1856 1901 1849 1920 1849 
C 1978 1849 1978 1869 1978 1978 
L 1978 2697 
z
" transform="scale(0.015625)"/>
       <path id="CMR17-5d" d="M 915 4767 
L 90 4767 
L 90 4544 
L 691 4544 
L 691 -1377 
L 90 -1377 
L 90 -1600 
L 915 -1600 
L 915 4767 
z
" transform="scale(0.015625)"/>
      </defs>
      <use xlink:href="#CMR17-41" transform="scale(0.996264)"/>
      <use xlink:href="#CMR17-6e" transform="translate(69.07243 0) scale(0.996264)"/>
      <use xlink:href="#CMR17-67" transform="translate(119.9678 0) scale(0.996264)"/>
      <use xlink:href="#CMR17-75" transform="translate(165.658277 0) scale(0.996264)"/>
      <use xlink:href="#CMR17-6c" transform="translate(216.553646 0) scale(0.996264)"/>
      <use xlink:href="#CMR17-61" transform="translate(241.424705 0) scale(0.996264)"/>
      <use xlink:href="#CMR17-72" transform="translate(287.115182 0) scale(0.996264)"/>
      <use xlink:href="#CMR17-66" transform="translate(352.471916 0) scale(0.996264)"/>
      <use xlink:href="#CMR17-72" transform="translate(379.945429 0) scale(0.996264)"/>
      <use xlink:href="#CMR17-65" transform="translate(415.226196 0) scale(0.996264)"/>
      <use xlink:href="#CMR17-71" transform="translate(455.711857 0) scale(0.996264)"/>
      <use xlink:href="#CMR17-75" transform="translate(504.004773 0) scale(0.996264)"/>
      <use xlink:href="#CMR17-65" transform="translate(554.900143 0) scale(0.996264)"/>
      <use xlink:href="#CMR17-6e" transform="translate(595.385803 0) scale(0.996264)"/>
      <use xlink:href="#CMR17-63" transform="translate(646.281173 0) scale(0.996264)"/>
      <use xlink:href="#CMR17-79" transform="translate(686.766833 0) scale(0.996264)"/>
      <use xlink:href="#CMMI12-21" transform="translate(765.135715 0) scale(0.996264)"/>
      <use xlink:href="#CMR17-5b" transform="translate(859.530028 0) scale(0.996264)"/>
      <use xlink:href="#CMR17-72" transform="translate(884.401086 0) scale(0.996264)"/>
      <use xlink:href="#CMR17-61" transform="translate(919.681854 0) scale(0.996264)"/>
      <use xlink:href="#CMR17-64" transform="translate(965.372331 0) scale(0.996264)"/>
      <use xlink:href="#CMR17-2f" transform="translate(1016.267701 0) scale(0.996264)"/>
      <use xlink:href="#CMR17-73" transform="translate(1061.958178 0) scale(0.996264)"/>
      <use xlink:href="#CMR17-5d" transform="translate(1097.759516 0) scale(0.996264)"/>
     </g>
    </g>
   </g>
   <g id="matplotlib.axis_2">
    <g id="ytick_1">
     <g id="line2d_44">
      <path d="M 60.719428 235.748998 
L 396.607826 235.748998 
" clip-path="url(#pe177631192)" style="fill: none; stroke-dasharray: 2.22,0.96; stroke-dashoffset: 0; stroke: #808080; stroke-opacity: 0.7; stroke-width: 0.6"/>
     </g>
     <g id="line2d_45">
      <defs>
       <path id="mb53edc3df0" d="M 0 0 
L 4 0 
" style="stroke: #000000; stroke-width: 0.8"/>
      </defs>
      <g>
       <use xlink:href="#mb53edc3df0" x="60.719428" y="235.748998" style="stroke: #000000; stroke-width: 0.8"/>
      </g>
     </g>
     <g id="text_7">
      <!-- $\mathdefault{10^{-7}}$ -->
      <g transform="translate(29.220436 240.93786) scale(0.15 -0.15)">
       <defs>
        <path id="CMR17-37" d="M 2886 3941 
L 2886 4081 
L 1382 4081 
C 634 4081 621 4165 595 4288 
L 480 4288 
L 294 3094 
L 410 3094 
C 429 3215 474 3540 550 3661 
C 589 3712 1062 3712 1171 3712 
L 2579 3712 
L 1869 2661 
C 1395 1954 1069 999 1069 165 
C 1069 89 1069 -128 1299 -128 
C 1530 -128 1530 89 1530 171 
L 1530 465 
C 1530 1508 1709 2196 2003 2636 
L 2886 3941 
z
" transform="scale(0.015625)"/>
       </defs>
       <use xlink:href="#CMR17-31" transform="scale(0.996264)"/>
       <use xlink:href="#CMR17-30" transform="translate(45.690477 0) scale(0.996264)"/>
       <use xlink:href="#CMSY10-0" transform="translate(91.380954 36.153639) scale(0.697382)"/>
       <use xlink:href="#CMR17-37" transform="translate(145.621947 36.153639) scale(0.697382)"/>
      </g>
     </g>
    </g>
    <g id="ytick_2">
     <g id="line2d_46">
      <path d="M 60.719428 205.014176 
L 396.607826 205.014176 
" clip-path="url(#pe177631192)" style="fill: none; stroke-dasharray: 2.22,0.96; stroke-dashoffset: 0; stroke: #808080; stroke-opacity: 0.7; stroke-width: 0.6"/>
     </g>
     <g id="line2d_47">
      <g>
       <use xlink:href="#mb53edc3df0" x="60.719428" y="205.014176" style="stroke: #000000; stroke-width: 0.8"/>
      </g>
     </g>
     <g id="text_8">
      <!-- $\mathdefault{10^{-6}}$ -->
      <g transform="translate(29.220436 210.203039) scale(0.15 -0.15)">
       <defs>
        <path id="CMR17-36" d="M 678 2176 
C 678 3690 1395 4032 1811 4032 
C 1946 4032 2272 4009 2400 3776 
C 2298 3776 2106 3776 2106 3553 
C 2106 3381 2246 3323 2336 3323 
C 2394 3323 2566 3348 2566 3560 
C 2566 3954 2246 4179 1805 4179 
C 1043 4179 243 3390 243 1984 
C 243 253 966 -128 1478 -128 
C 2099 -128 2688 427 2688 1283 
C 2688 2081 2170 2662 1517 2662 
C 1126 2662 838 2407 678 1960 
L 678 2176 
z
M 1478 25 
C 691 25 691 1200 691 1436 
C 691 1896 909 2560 1504 2560 
C 1613 2560 1926 2560 2138 2120 
C 2253 1870 2253 1609 2253 1289 
C 2253 944 2253 690 2118 434 
C 1978 171 1773 25 1478 25 
z
" transform="scale(0.015625)"/>
       </defs>
       <use xlink:href="#CMR17-31" transform="scale(0.996264)"/>
       <use xlink:href="#CMR17-30" transform="translate(45.690477 0) scale(0.996264)"/>
       <use xlink:href="#CMSY10-0" transform="translate(91.380954 36.153639) scale(0.697382)"/>
       <use xlink:href="#CMR17-36" transform="translate(145.621947 36.153639) scale(0.697382)"/>
      </g>
     </g>
    </g>
    <g id="ytick_3">
     <g id="line2d_48">
      <path d="M 60.719428 174.279354 
L 396.607826 174.279354 
" clip-path="url(#pe177631192)" style="fill: none; stroke-dasharray: 2.22,0.96; stroke-dashoffset: 0; stroke: #808080; stroke-opacity: 0.7; stroke-width: 0.6"/>
     </g>
     <g id="line2d_49">
      <g>
       <use xlink:href="#mb53edc3df0" x="60.719428" y="174.279354" style="stroke: #000000; stroke-width: 0.8"/>
      </g>
     </g>
     <g id="text_9">
      <!-- $\mathdefault{10^{-5}}$ -->
      <g transform="translate(29.220436 179.468217) scale(0.15 -0.15)">
       <defs>
        <path id="CMR17-35" d="M 730 3692 
C 794 3666 1056 3584 1325 3584 
C 1920 3584 2246 3911 2432 4100 
C 2432 4157 2432 4192 2394 4192 
C 2387 4192 2374 4192 2323 4163 
C 2099 4058 1837 3973 1517 3973 
C 1325 3973 1037 3999 723 4139 
C 653 4171 640 4171 634 4171 
C 602 4171 595 4164 595 4037 
L 595 2203 
C 595 2089 595 2057 659 2057 
C 691 2057 704 2070 736 2114 
C 941 2401 1222 2522 1542 2522 
C 1766 2522 2246 2382 2246 1289 
C 2246 1085 2246 715 2054 421 
C 1894 159 1645 25 1370 25 
C 947 25 518 320 403 814 
C 429 807 480 795 506 795 
C 589 795 749 840 749 1038 
C 749 1210 627 1280 506 1280 
C 358 1280 262 1190 262 1011 
C 262 454 704 -128 1382 -128 
C 2042 -128 2669 440 2669 1264 
C 2669 2030 2170 2624 1549 2624 
C 1222 2624 947 2503 730 2274 
L 730 3692 
z
" transform="scale(0.015625)"/>
       </defs>
       <use xlink:href="#CMR17-31" transform="scale(0.996264)"/>
       <use xlink:href="#CMR17-30" transform="translate(45.690477 0) scale(0.996264)"/>
       <use xlink:href="#CMSY10-0" transform="translate(91.380954 36.153639) scale(0.697382)"/>
       <use xlink:href="#CMR17-35" transform="translate(145.621947 36.153639) scale(0.697382)"/>
      </g>
     </g>
    </g>
    <g id="ytick_4">
     <g id="line2d_50">
      <path d="M 60.719428 143.544533 
L 396.607826 143.544533 
" clip-path="url(#pe177631192)" style="fill: none; stroke-dasharray: 2.22,0.96; stroke-dashoffset: 0; stroke: #808080; stroke-opacity: 0.7; stroke-width: 0.6"/>
     </g>
     <g id="line2d_51">
      <g>
       <use xlink:href="#mb53edc3df0" x="60.719428" y="143.544533" style="stroke: #000000; stroke-width: 0.8"/>
      </g>
     </g>
     <g id="text_10">
      <!-- $\mathdefault{10^{-4}}$ -->
      <g transform="translate(29.220436 148.733395) scale(0.15 -0.15)">
       <defs>
        <path id="CMR17-34" d="M 2150 4122 
C 2150 4256 2144 4256 2029 4256 
L 128 1254 
L 128 1088 
L 1779 1088 
L 1779 457 
C 1779 224 1766 160 1318 160 
L 1197 160 
L 1197 0 
C 1402 0 1747 0 1965 0 
C 2182 0 2528 0 2733 0 
L 2733 160 
L 2611 160 
C 2163 160 2150 224 2150 457 
L 2150 1088 
L 2803 1088 
L 2803 1254 
L 2150 1254 
L 2150 4122 
z
M 1798 3703 
L 1798 1254 
L 256 1254 
L 1798 3703 
z
" transform="scale(0.015625)"/>
       </defs>
       <use xlink:href="#CMR17-31" transform="scale(0.996264)"/>
       <use xlink:href="#CMR17-30" transform="translate(45.690477 0) scale(0.996264)"/>
       <use xlink:href="#CMSY10-0" transform="translate(91.380954 36.153639) scale(0.697382)"/>
       <use xlink:href="#CMR17-34" transform="translate(145.621947 36.153639) scale(0.697382)"/>
      </g>
     </g>
    </g>
    <g id="ytick_5">
     <g id="line2d_52">
      <path d="M 60.719428 112.809711 
L 396.607826 112.809711 
" clip-path="url(#pe177631192)" style="fill: none; stroke-dasharray: 2.22,0.96; stroke-dashoffset: 0; stroke: #808080; stroke-opacity: 0.7; stroke-width: 0.6"/>
     </g>
     <g id="line2d_53">
      <g>
       <use xlink:href="#mb53edc3df0" x="60.719428" y="112.809711" style="stroke: #000000; stroke-width: 0.8"/>
      </g>
     </g>
     <g id="text_11">
      <!-- $\mathdefault{10^{-3}}$ -->
      <g transform="translate(29.220436 117.998573) scale(0.15 -0.15)">
       <use xlink:href="#CMR17-31" transform="scale(0.996264)"/>
       <use xlink:href="#CMR17-30" transform="translate(45.690477 0) scale(0.996264)"/>
       <use xlink:href="#CMSY10-0" transform="translate(91.380954 36.153639) scale(0.697382)"/>
       <use xlink:href="#CMR17-33" transform="translate(145.621947 36.153639) scale(0.697382)"/>
      </g>
     </g>
    </g>
    <g id="ytick_6">
     <g id="line2d_54">
      <path d="M 60.719428 82.074889 
L 396.607826 82.074889 
" clip-path="url(#pe177631192)" style="fill: none; stroke-dasharray: 2.22,0.96; stroke-dashoffset: 0; stroke: #808080; stroke-opacity: 0.7; stroke-width: 0.6"/>
     </g>
     <g id="line2d_55">
      <g>
       <use xlink:href="#mb53edc3df0" x="60.719428" y="82.074889" style="stroke: #000000; stroke-width: 0.8"/>
      </g>
     </g>
     <g id="text_12">
      <!-- $\mathdefault{10^{-2}}$ -->
      <g transform="translate(29.220436 87.263751) scale(0.15 -0.15)">
       <use xlink:href="#CMR17-31" transform="scale(0.996264)"/>
       <use xlink:href="#CMR17-30" transform="translate(45.690477 0) scale(0.996264)"/>
       <use xlink:href="#CMSY10-0" transform="translate(91.380954 36.153639) scale(0.697382)"/>
       <use xlink:href="#CMR17-32" transform="translate(145.621947 36.153639) scale(0.697382)"/>
      </g>
     </g>
    </g>
    <g id="ytick_7">
     <g id="line2d_56">
      <path d="M 60.719428 51.340067 
L 396.607826 51.340067 
" clip-path="url(#pe177631192)" style="fill: none; stroke-dasharray: 2.22,0.96; stroke-dashoffset: 0; stroke: #808080; stroke-opacity: 0.7; stroke-width: 0.6"/>
     </g>
     <g id="line2d_57">
      <g>
       <use xlink:href="#mb53edc3df0" x="60.719428" y="51.340067" style="stroke: #000000; stroke-width: 0.8"/>
      </g>
     </g>
     <g id="text_13">
      <!-- $\mathdefault{10^{-1}}$ -->
      <g transform="translate(29.220436 56.52893) scale(0.15 -0.15)">
       <use xlink:href="#CMR17-31" transform="scale(0.996264)"/>
       <use xlink:href="#CMR17-30" transform="translate(45.690477 0) scale(0.996264)"/>
       <use xlink:href="#CMSY10-0" transform="translate(91.380954 36.153639) scale(0.697382)"/>
       <use xlink:href="#CMR17-31" transform="translate(145.621947 36.153639) scale(0.697382)"/>
      </g>
     </g>
    </g>
    <g id="ytick_8">
     <g id="line2d_58">
      <path d="M 60.719428 20.605246 
L 396.607826 20.605246 
" clip-path="url(#pe177631192)" style="fill: none; stroke-dasharray: 2.22,0.96; stroke-dashoffset: 0; stroke: #808080; stroke-opacity: 0.7; stroke-width: 0.6"/>
     </g>
     <g id="line2d_59">
      <g>
       <use xlink:href="#mb53edc3df0" x="60.719428" y="20.605246" style="stroke: #000000; stroke-width: 0.8"/>
      </g>
     </g>
     <g id="text_14">
      <!-- $\mathdefault{10^{0}}$ -->
      <g transform="translate(37.356582 25.794108) scale(0.15 -0.15)">
       <use xlink:href="#CMR17-31" transform="scale(0.996264)"/>
       <use xlink:href="#CMR17-30" transform="translate(45.690477 0) scale(0.996264)"/>
       <use xlink:href="#CMR17-30" transform="translate(91.380954 36.153639) scale(0.697382)"/>
      </g>
     </g>
    </g>
    <g id="ytick_9">
     <g id="line2d_60">
      <defs>
       <path id="m14e341eec9" d="M 0 0 
L -2 0 
" style="stroke: #000000; stroke-width: 0.6"/>
      </defs>
      <g>
       <use xlink:href="#m14e341eec9" x="60.719428" y="257.231716" style="stroke: #000000; stroke-width: 0.6"/>
      </g>
     </g>
    </g>
    <g id="ytick_10">
     <g id="line2d_61">
      <g>
       <use xlink:href="#m14e341eec9" x="60.719428" y="251.819583" style="stroke: #000000; stroke-width: 0.6"/>
      </g>
     </g>
    </g>
    <g id="ytick_11">
     <g id="line2d_62">
      <g>
       <use xlink:href="#m14e341eec9" x="60.719428" y="247.979613" style="stroke: #000000; stroke-width: 0.6"/>
      </g>
     </g>
    </g>
    <g id="ytick_12">
     <g id="line2d_63">
      <g>
       <use xlink:href="#m14e341eec9" x="60.719428" y="245.001101" style="stroke: #000000; stroke-width: 0.6"/>
      </g>
     </g>
    </g>
    <g id="ytick_13">
     <g id="line2d_64">
      <g>
       <use xlink:href="#m14e341eec9" x="60.719428" y="242.56748" style="stroke: #000000; stroke-width: 0.6"/>
      </g>
     </g>
    </g>
    <g id="ytick_14">
     <g id="line2d_65">
      <g>
       <use xlink:href="#m14e341eec9" x="60.719428" y="240.509882" style="stroke: #000000; stroke-width: 0.6"/>
      </g>
     </g>
    </g>
    <g id="ytick_15">
     <g id="line2d_66">
      <g>
       <use xlink:href="#m14e341eec9" x="60.719428" y="238.72751" style="stroke: #000000; stroke-width: 0.6"/>
      </g>
     </g>
    </g>
    <g id="ytick_16">
     <g id="line2d_67">
      <g>
       <use xlink:href="#m14e341eec9" x="60.719428" y="237.155346" style="stroke: #000000; stroke-width: 0.6"/>
      </g>
     </g>
    </g>
    <g id="ytick_17">
     <g id="line2d_68">
      <g>
       <use xlink:href="#m14e341eec9" x="60.719428" y="226.496895" style="stroke: #000000; stroke-width: 0.6"/>
      </g>
     </g>
    </g>
    <g id="ytick_18">
     <g id="line2d_69">
      <g>
       <use xlink:href="#m14e341eec9" x="60.719428" y="221.084761" style="stroke: #000000; stroke-width: 0.6"/>
      </g>
     </g>
    </g>
    <g id="ytick_19">
     <g id="line2d_70">
      <g>
       <use xlink:href="#m14e341eec9" x="60.719428" y="217.244791" style="stroke: #000000; stroke-width: 0.6"/>
      </g>
     </g>
    </g>
    <g id="ytick_20">
     <g id="line2d_71">
      <g>
       <use xlink:href="#m14e341eec9" x="60.719428" y="214.266279" style="stroke: #000000; stroke-width: 0.6"/>
      </g>
     </g>
    </g>
    <g id="ytick_21">
     <g id="line2d_72">
      <g>
       <use xlink:href="#m14e341eec9" x="60.719428" y="211.832658" style="stroke: #000000; stroke-width: 0.6"/>
      </g>
     </g>
    </g>
    <g id="ytick_22">
     <g id="line2d_73">
      <g>
       <use xlink:href="#m14e341eec9" x="60.719428" y="209.77506" style="stroke: #000000; stroke-width: 0.6"/>
      </g>
     </g>
    </g>
    <g id="ytick_23">
     <g id="line2d_74">
      <g>
       <use xlink:href="#m14e341eec9" x="60.719428" y="207.992688" style="stroke: #000000; stroke-width: 0.6"/>
      </g>
     </g>
    </g>
    <g id="ytick_24">
     <g id="line2d_75">
      <g>
       <use xlink:href="#m14e341eec9" x="60.719428" y="206.420524" style="stroke: #000000; stroke-width: 0.6"/>
      </g>
     </g>
    </g>
    <g id="ytick_25">
     <g id="line2d_76">
      <g>
       <use xlink:href="#m14e341eec9" x="60.719428" y="195.762073" style="stroke: #000000; stroke-width: 0.6"/>
      </g>
     </g>
    </g>
    <g id="ytick_26">
     <g id="line2d_77">
      <g>
       <use xlink:href="#m14e341eec9" x="60.719428" y="190.349939" style="stroke: #000000; stroke-width: 0.6"/>
      </g>
     </g>
    </g>
    <g id="ytick_27">
     <g id="line2d_78">
      <g>
       <use xlink:href="#m14e341eec9" x="60.719428" y="186.50997" style="stroke: #000000; stroke-width: 0.6"/>
      </g>
     </g>
    </g>
    <g id="ytick_28">
     <g id="line2d_79">
      <g>
       <use xlink:href="#m14e341eec9" x="60.719428" y="183.531458" style="stroke: #000000; stroke-width: 0.6"/>
      </g>
     </g>
    </g>
    <g id="ytick_29">
     <g id="line2d_80">
      <g>
       <use xlink:href="#m14e341eec9" x="60.719428" y="181.097836" style="stroke: #000000; stroke-width: 0.6"/>
      </g>
     </g>
    </g>
    <g id="ytick_30">
     <g id="line2d_81">
      <g>
       <use xlink:href="#m14e341eec9" x="60.719428" y="179.040238" style="stroke: #000000; stroke-width: 0.6"/>
      </g>
     </g>
    </g>
    <g id="ytick_31">
     <g id="line2d_82">
      <g>
       <use xlink:href="#m14e341eec9" x="60.719428" y="177.257866" style="stroke: #000000; stroke-width: 0.6"/>
      </g>
     </g>
    </g>
    <g id="ytick_32">
     <g id="line2d_83">
      <g>
       <use xlink:href="#m14e341eec9" x="60.719428" y="175.685703" style="stroke: #000000; stroke-width: 0.6"/>
      </g>
     </g>
    </g>
    <g id="ytick_33">
     <g id="line2d_84">
      <g>
       <use xlink:href="#m14e341eec9" x="60.719428" y="165.027251" style="stroke: #000000; stroke-width: 0.6"/>
      </g>
     </g>
    </g>
    <g id="ytick_34">
     <g id="line2d_85">
      <g>
       <use xlink:href="#m14e341eec9" x="60.719428" y="159.615118" style="stroke: #000000; stroke-width: 0.6"/>
      </g>
     </g>
    </g>
    <g id="ytick_35">
     <g id="line2d_86">
      <g>
       <use xlink:href="#m14e341eec9" x="60.719428" y="155.775148" style="stroke: #000000; stroke-width: 0.6"/>
      </g>
     </g>
    </g>
    <g id="ytick_36">
     <g id="line2d_87">
      <g>
       <use xlink:href="#m14e341eec9" x="60.719428" y="152.796636" style="stroke: #000000; stroke-width: 0.6"/>
      </g>
     </g>
    </g>
    <g id="ytick_37">
     <g id="line2d_88">
      <g>
       <use xlink:href="#m14e341eec9" x="60.719428" y="150.363014" style="stroke: #000000; stroke-width: 0.6"/>
      </g>
     </g>
    </g>
    <g id="ytick_38">
     <g id="line2d_89">
      <g>
       <use xlink:href="#m14e341eec9" x="60.719428" y="148.305417" style="stroke: #000000; stroke-width: 0.6"/>
      </g>
     </g>
    </g>
    <g id="ytick_39">
     <g id="line2d_90">
      <g>
       <use xlink:href="#m14e341eec9" x="60.719428" y="146.523045" style="stroke: #000000; stroke-width: 0.6"/>
      </g>
     </g>
    </g>
    <g id="ytick_40">
     <g id="line2d_91">
      <g>
       <use xlink:href="#m14e341eec9" x="60.719428" y="144.950881" style="stroke: #000000; stroke-width: 0.6"/>
      </g>
     </g>
    </g>
    <g id="ytick_41">
     <g id="line2d_92">
      <g>
       <use xlink:href="#m14e341eec9" x="60.719428" y="134.292429" style="stroke: #000000; stroke-width: 0.6"/>
      </g>
     </g>
    </g>
    <g id="ytick_42">
     <g id="line2d_93">
      <g>
       <use xlink:href="#m14e341eec9" x="60.719428" y="128.880296" style="stroke: #000000; stroke-width: 0.6"/>
      </g>
     </g>
    </g>
    <g id="ytick_43">
     <g id="line2d_94">
      <g>
       <use xlink:href="#m14e341eec9" x="60.719428" y="125.040326" style="stroke: #000000; stroke-width: 0.6"/>
      </g>
     </g>
    </g>
    <g id="ytick_44">
     <g id="line2d_95">
      <g>
       <use xlink:href="#m14e341eec9" x="60.719428" y="122.061814" style="stroke: #000000; stroke-width: 0.6"/>
      </g>
     </g>
    </g>
    <g id="ytick_45">
     <g id="line2d_96">
      <g>
       <use xlink:href="#m14e341eec9" x="60.719428" y="119.628193" style="stroke: #000000; stroke-width: 0.6"/>
      </g>
     </g>
    </g>
    <g id="ytick_46">
     <g id="line2d_97">
      <g>
       <use xlink:href="#m14e341eec9" x="60.719428" y="117.570595" style="stroke: #000000; stroke-width: 0.6"/>
      </g>
     </g>
    </g>
    <g id="ytick_47">
     <g id="line2d_98">
      <g>
       <use xlink:href="#m14e341eec9" x="60.719428" y="115.788223" style="stroke: #000000; stroke-width: 0.6"/>
      </g>
     </g>
    </g>
    <g id="ytick_48">
     <g id="line2d_99">
      <g>
       <use xlink:href="#m14e341eec9" x="60.719428" y="114.216059" style="stroke: #000000; stroke-width: 0.6"/>
      </g>
     </g>
    </g>
    <g id="ytick_49">
     <g id="line2d_100">
      <g>
       <use xlink:href="#m14e341eec9" x="60.719428" y="103.557608" style="stroke: #000000; stroke-width: 0.6"/>
      </g>
     </g>
    </g>
    <g id="ytick_50">
     <g id="line2d_101">
      <g>
       <use xlink:href="#m14e341eec9" x="60.719428" y="98.145474" style="stroke: #000000; stroke-width: 0.6"/>
      </g>
     </g>
    </g>
    <g id="ytick_51">
     <g id="line2d_102">
      <g>
       <use xlink:href="#m14e341eec9" x="60.719428" y="94.305504" style="stroke: #000000; stroke-width: 0.6"/>
      </g>
     </g>
    </g>
    <g id="ytick_52">
     <g id="line2d_103">
      <g>
       <use xlink:href="#m14e341eec9" x="60.719428" y="91.326992" style="stroke: #000000; stroke-width: 0.6"/>
      </g>
     </g>
    </g>
    <g id="ytick_53">
     <g id="line2d_104">
      <g>
       <use xlink:href="#m14e341eec9" x="60.719428" y="88.893371" style="stroke: #000000; stroke-width: 0.6"/>
      </g>
     </g>
    </g>
    <g id="ytick_54">
     <g id="line2d_105">
      <g>
       <use xlink:href="#m14e341eec9" x="60.719428" y="86.835773" style="stroke: #000000; stroke-width: 0.6"/>
      </g>
     </g>
    </g>
    <g id="ytick_55">
     <g id="line2d_106">
      <g>
       <use xlink:href="#m14e341eec9" x="60.719428" y="85.053401" style="stroke: #000000; stroke-width: 0.6"/>
      </g>
     </g>
    </g>
    <g id="ytick_56">
     <g id="line2d_107">
      <g>
       <use xlink:href="#m14e341eec9" x="60.719428" y="83.481237" style="stroke: #000000; stroke-width: 0.6"/>
      </g>
     </g>
    </g>
    <g id="ytick_57">
     <g id="line2d_108">
      <g>
       <use xlink:href="#m14e341eec9" x="60.719428" y="72.822786" style="stroke: #000000; stroke-width: 0.6"/>
      </g>
     </g>
    </g>
    <g id="ytick_58">
     <g id="line2d_109">
      <g>
       <use xlink:href="#m14e341eec9" x="60.719428" y="67.410652" style="stroke: #000000; stroke-width: 0.6"/>
      </g>
     </g>
    </g>
    <g id="ytick_59">
     <g id="line2d_110">
      <g>
       <use xlink:href="#m14e341eec9" x="60.719428" y="63.570683" style="stroke: #000000; stroke-width: 0.6"/>
      </g>
     </g>
    </g>
    <g id="ytick_60">
     <g id="line2d_111">
      <g>
       <use xlink:href="#m14e341eec9" x="60.719428" y="60.592171" style="stroke: #000000; stroke-width: 0.6"/>
      </g>
     </g>
    </g>
    <g id="ytick_61">
     <g id="line2d_112">
      <g>
       <use xlink:href="#m14e341eec9" x="60.719428" y="58.158549" style="stroke: #000000; stroke-width: 0.6"/>
      </g>
     </g>
    </g>
    <g id="ytick_62">
     <g id="line2d_113">
      <g>
       <use xlink:href="#m14e341eec9" x="60.719428" y="56.100951" style="stroke: #000000; stroke-width: 0.6"/>
      </g>
     </g>
    </g>
    <g id="ytick_63">
     <g id="line2d_114">
      <g>
       <use xlink:href="#m14e341eec9" x="60.719428" y="54.318579" style="stroke: #000000; stroke-width: 0.6"/>
      </g>
     </g>
    </g>
    <g id="ytick_64">
     <g id="line2d_115">
      <g>
       <use xlink:href="#m14e341eec9" x="60.719428" y="52.746416" style="stroke: #000000; stroke-width: 0.6"/>
      </g>
     </g>
    </g>
    <g id="ytick_65">
     <g id="line2d_116">
      <g>
       <use xlink:href="#m14e341eec9" x="60.719428" y="42.087964" style="stroke: #000000; stroke-width: 0.6"/>
      </g>
     </g>
    </g>
    <g id="ytick_66">
     <g id="line2d_117">
      <g>
       <use xlink:href="#m14e341eec9" x="60.719428" y="36.675831" style="stroke: #000000; stroke-width: 0.6"/>
      </g>
     </g>
    </g>
    <g id="ytick_67">
     <g id="line2d_118">
      <g>
       <use xlink:href="#m14e341eec9" x="60.719428" y="32.835861" style="stroke: #000000; stroke-width: 0.6"/>
      </g>
     </g>
    </g>
    <g id="ytick_68">
     <g id="line2d_119">
      <g>
       <use xlink:href="#m14e341eec9" x="60.719428" y="29.857349" style="stroke: #000000; stroke-width: 0.6"/>
      </g>
     </g>
    </g>
    <g id="ytick_69">
     <g id="line2d_120">
      <g>
       <use xlink:href="#m14e341eec9" x="60.719428" y="27.423727" style="stroke: #000000; stroke-width: 0.6"/>
      </g>
     </g>
    </g>
    <g id="ytick_70">
     <g id="line2d_121">
      <g>
       <use xlink:href="#m14e341eec9" x="60.719428" y="25.36613" style="stroke: #000000; stroke-width: 0.6"/>
      </g>
     </g>
    </g>
    <g id="ytick_71">
     <g id="line2d_122">
      <g>
       <use xlink:href="#m14e341eec9" x="60.719428" y="23.583758" style="stroke: #000000; stroke-width: 0.6"/>
      </g>
     </g>
    </g>
    <g id="ytick_72">
     <g id="line2d_123">
      <g>
       <use xlink:href="#m14e341eec9" x="60.719428" y="22.011594" style="stroke: #000000; stroke-width: 0.6"/>
      </g>
     </g>
    </g>
    <g id="text_15">
     <!-- $|h(\omega)|^2$ [a.u.$^2$/Hz] -->
     <g transform="translate(20.986314 194.736068) rotate(-90) scale(0.17 -0.17)">
      <defs>
       <path id="CMSY10-6a" d="M 1018 4570 
C 1018 4685 1018 4800 890 4800 
C 762 4800 762 4685 762 4570 
L 762 -1370 
C 762 -1485 762 -1600 890 -1600 
C 1018 -1600 1018 -1485 1018 -1370 
L 1018 4570 
z
" transform="scale(0.015625)"/>
       <path id="CMMI12-68" d="M 1798 4257 
C 1805 4283 1818 4321 1818 4352 
C 1818 4416 1754 4416 1741 4416 
C 1734 4416 1421 4388 1389 4380 
C 1280 4373 1184 4358 1069 4358 
C 909 4345 864 4339 864 4224 
C 864 4160 915 4160 1005 4160 
C 1318 4160 1325 4103 1325 4040 
C 1325 4002 1312 3951 1306 3932 
L 378 248 
C 352 152 352 140 352 101 
C 352 -38 461 -64 525 -64 
C 634 -64 717 19 749 89 
L 1037 1245 
C 1069 1386 1107 1520 1139 1660 
C 1210 1929 1210 1935 1331 2120 
C 1453 2305 1741 2689 2234 2689 
C 2490 2689 2579 2497 2579 2242 
C 2579 1884 2330 1188 2189 805 
C 2131 651 2099 568 2099 453 
C 2099 166 2298 -64 2605 -64 
C 3200 -64 3424 875 3424 913 
C 3424 945 3398 971 3360 971 
C 3302 971 3296 952 3264 843 
C 3117 332 2880 64 2624 64 
C 2560 64 2458 64 2458 269 
C 2458 436 2534 640 2560 710 
C 2675 1018 2963 1773 2963 2145 
C 2963 2528 2739 2816 2253 2816 
C 1888 2816 1568 2644 1306 2312 
L 1798 4257 
z
" transform="scale(0.015625)"/>
       <path id="CMR17-28" d="M 1958 -1561 
C 1958 -1555 1958 -1542 1939 -1523 
C 1645 -1224 858 -407 858 1581 
C 858 3569 1632 4379 1946 4697 
C 1946 4704 1958 4717 1958 4736 
C 1958 4755 1939 4768 1914 4768 
C 1843 4768 1299 4296 986 3594 
C 666 2887 576 2199 576 1588 
C 576 1128 621 351 1005 -471 
C 1312 -1135 1837 -1600 1914 -1600 
C 1946 -1600 1958 -1587 1958 -1561 
z
" transform="scale(0.015625)"/>
       <path id="CMR17-29" d="M 1683 1581 
C 1683 2040 1638 2817 1254 3639 
C 947 4303 422 4768 346 4768 
C 326 4768 301 4761 301 4729 
C 301 4717 307 4710 314 4697 
C 621 4378 1402 3568 1402 1584 
C 1402 -407 627 -1217 314 -1537 
C 307 -1549 301 -1556 301 -1568 
C 301 -1600 326 -1600 346 -1600 
C 416 -1600 960 -1128 1274 -426 
C 1594 281 1683 969 1683 1581 
z
" transform="scale(0.015625)"/>
       <path id="CMR17-2e" d="M 1062 261 
C 1062 420 934 522 800 522 
C 672 522 538 420 538 261 
C 538 102 666 0 800 0 
C 928 0 1062 102 1062 261 
z
" transform="scale(0.015625)"/>
       <path id="CMR17-48" d="M 3590 3905 
C 3590 4192 3661 4192 4102 4192 
L 4102 4352 
C 3917 4352 3578 4352 3379 4352 
C 3181 4352 2842 4352 2656 4352 
L 2656 4192 
C 3098 4192 3168 4192 3168 3904 
L 3168 2341 
L 1261 2341 
L 1261 3904 
C 1261 4192 1331 4192 1773 4192 
L 1773 4352 
C 1587 4352 1248 4352 1050 4352 
C 851 4352 512 4352 326 4352 
L 326 4192 
C 768 4192 838 4192 838 3905 
L 838 447 
C 838 160 768 160 326 160 
L 326 0 
C 512 0 851 0 1050 0 
C 1248 0 1587 0 1773 0 
L 1773 160 
C 1331 160 1261 160 1261 446 
L 1261 2176 
L 3168 2176 
L 3168 446 
C 3168 160 3098 160 2656 160 
L 2656 0 
C 2842 0 3181 0 3379 0 
C 3578 0 3917 0 4102 0 
L 4102 160 
C 3661 160 3590 160 3590 447 
L 3590 3905 
z
" transform="scale(0.015625)"/>
       <path id="CMR17-7a" d="M 2310 2605 
C 2362 2670 2362 2682 2362 2695 
C 2362 2752 2336 2752 2221 2752 
L 275 2752 
L 211 1760 
L 326 1760 
C 371 2381 442 2650 1178 2650 
L 1958 2650 
L 128 96 
C 128 0 134 0 269 0 
L 2291 0 
L 2381 1152 
L 2266 1152 
C 2214 442 2131 115 1350 115 
L 531 115 
L 2310 2605 
z
" transform="scale(0.015625)"/>
      </defs>
      <use xlink:href="#CMSY10-6a" transform="scale(0.996264)"/>
      <use xlink:href="#CMMI12-68" transform="translate(27.674085 0) scale(0.996264)"/>
      <use xlink:href="#CMR17-28" transform="translate(83.828709 0) scale(0.996264)"/>
      <use xlink:href="#CMMI12-21" transform="translate(119.109477 0) scale(0.996264)"/>
      <use xlink:href="#CMR17-29" transform="translate(183.427823 0) scale(0.996264)"/>
      <use xlink:href="#CMSY10-6a" transform="translate(218.70859 0) scale(0.996264)"/>
      <use xlink:href="#CMR17-32" transform="translate(246.382675 36.153639) scale(0.697382)"/>
      <use xlink:href="#CMR17-5b" transform="translate(308.939955 0) scale(0.996264)"/>
      <use xlink:href="#CMR17-61" transform="translate(333.811014 0) scale(0.996264)"/>
      <use xlink:href="#CMR17-2e" transform="translate(379.501491 0) scale(0.996264)"/>
      <use xlink:href="#CMR17-75" transform="translate(404.372549 0) scale(0.996264)"/>
      <use xlink:href="#CMR17-2e" transform="translate(455.267919 0) scale(0.996264)"/>
      <use xlink:href="#CMR17-32" transform="translate(480.138978 36.153639) scale(0.697382)"/>
      <use xlink:href="#CMR17-2f" transform="translate(512.620292 0) scale(0.996264)"/>
      <use xlink:href="#CMR17-48" transform="translate(558.310769 0) scale(0.996264)"/>
      <use xlink:href="#CMR17-7a" transform="translate(627.383199 0) scale(0.996264)"/>
      <use xlink:href="#CMR17-5d" transform="translate(667.868859 0) scale(0.996264)"/>
     </g>
    </g>
   </g>
   <g id="line2d_124">
    <path d="M -1 183.486925 
L 32.267841 183.486925 
L 69.956658 159.221038 
L 87.48096 147.396254 
L 120.260583 124.665575 
L 206.589685 64.538866 
L 219.270293 56.047674 
L 228.732162 49.968599 
L 236.676604 45.119532 
L 243.993213 40.913776 
L 250.968421 37.164017 
L 257.831339 33.729955 
L 264.42723 30.675435 
L 270.291517 28.197948 
L 275.067355 26.412058 
L 279.001686 25.170949 
L 282.344051 24.344282 
L 285.260682 23.846972 
L 287.869016 23.62627 
L 290.367185 23.633887 
L 292.764919 23.860706 
L 295.135234 24.308413 
L 297.53326 24.989899 
L 300.02722 25.934713 
L 302.664325 27.175956 
L 305.568288 28.795674 
L 308.856368 30.892969 
L 312.775467 33.667923 
L 317.824544 37.532078 
L 325.690468 43.866896 
L 347.378307 61.425326 
L 357.913687 69.622041 
L 366.55076 76.071679 
L 373.322842 80.863884 
L 378.575947 84.321126 
L 382.670857 86.761789 
L 385.889651 88.432873 
L 388.4391 89.517014 
L 390.473276 90.150992 
L 392.110178 90.437856 
L 393.441829 90.45346 
L 394.539174 90.25027 
L 395.464233 89.856175 
L 396.260248 89.275617 
L 396.607072 88.924884 
L 396.607072 88.924884 
" clip-path="url(#pe177631192)" style="fill: none; stroke: #af0cc8; stroke-opacity: 0.9; stroke-linecap: square"/>
   </g>
   <g id="line2d_125">
    <path d="M -1 214.341804 
L 84.620484 154.231262 
L 111.601311 134.991304 
L 128.439473 122.750298 
L 166.26662 95.031336 
L 176.564517 87.62806 
L 207.906489 65.544786 
L 226.931309 52.709517 
L 234.837538 47.673669 
L 243.531757 42.416864 
L 249.948186 38.759164 
L 256.944383 35.018658 
L 264.502155 31.268981 
L 270.859114 28.398673 
L 275.447383 26.578307 
L 279.330515 25.262746 
L 282.540192 24.405035 
L 285.430179 23.859105 
L 288.079665 23.581244 
L 290.548336 23.543423 
L 292.911507 23.728618 
L 295.243127 24.134972 
L 297.608377 24.77478 
L 300.071944 25.674593 
L 302.704448 26.877214 
L 305.590889 28.44606 
L 308.852043 30.479127 
L 312.682753 33.139185 
L 317.465545 36.745151 
L 324.246019 42.160452 
L 363.652219 74.068929 
L 387.463595 92.781165 
L 396.607826 99.923268 
L 396.607826 99.923268 
" clip-path="url(#pe177631192)" style="fill: none; stroke: #009e73; stroke-opacity: 0.8; stroke-linecap: square"/>
   </g>
   <g id="line2d_126">
    <path d="M -1 186.680788 
L 32.267841 186.680788 
L 107.645475 133.738577 
L 164.350388 93.709766 
L 199.515579 69.331183 
L 214.878168 58.923128 
L 225.45129 52.020955 
L 233.908503 46.759725 
L 241.312869 42.408027 
L 248.295464 38.55802 
L 255.145163 35.034357 
L 261.88793 31.814493 
L 268.092993 29.091299 
L 273.284833 27.045516 
L 277.524804 25.605655 
L 281.055642 24.633597 
L 284.12361 24.012396 
L 286.816483 23.688856 
L 289.389638 23.605512 
L 291.818733 23.746411 
L 294.186776 24.104639 
L 296.55695 24.687808 
L 299.005208 25.522619 
L 301.585602 26.643486 
L 304.357225 28.094733 
L 307.466295 29.980712 
L 311.09541 32.45271 
L 315.606611 35.809759 
L 321.930799 40.817433 
L 355.111433 67.478699 
L 364.302231 74.429525 
L 371.575086 79.663696 
L 377.217694 83.463228 
L 381.60849 86.163811 
L 385.053051 88.032822 
L 387.775968 89.268274 
L 389.944412 90.018372 
L 391.683571 90.394433 
L 393.092859 90.480205 
L 394.249724 90.334705 
L 395.217421 89.993406 
L 396.046371 89.466385 
L 396.607072 88.932041 
L 396.607072 88.932041 
" clip-path="url(#pe177631192)" style="fill: none; stroke: #210e80; stroke-opacity: 0.8; stroke-linecap: square"/>
   </g>
   <g id="patch_3">
    <path d="M 60.719428 257.509458 
L 60.719428 12.388862 
" style="fill: none; stroke: #000000; stroke-width: 0.8; stroke-linejoin: miter; stroke-linecap: square"/>
   </g>
   <g id="patch_4">
    <path d="M 396.607826 257.509458 
L 396.607826 12.388862 
" style="fill: none; stroke: #000000; stroke-width: 0.8; stroke-linejoin: miter; stroke-linecap: square"/>
   </g>
   <g id="patch_5">
    <path d="M 60.719428 257.509458 
L 396.607826 257.509458 
" style="fill: none; stroke: #000000; stroke-width: 0.8; stroke-linejoin: miter; stroke-linecap: square"/>
   </g>
   <g id="patch_6">
    <path d="M 60.719428 12.388862 
L 396.607826 12.388862 
" style="fill: none; stroke: #000000; stroke-width: 0.8; stroke-linejoin: miter; stroke-linecap: square"/>
   </g>
   <g id="legend_1">
    <g id="line2d_127">
     <path d="M 268.780048 153.695347 
L 281.580048 153.695347 
L 294.380048 153.695347 
" style="fill: none; stroke: #808080; stroke-linecap: square"/>
    </g>
    <g id="text_16">
     <!-- $|h|^2$ -->
     <g transform="translate(304.620048 158.175347) scale(0.128 -0.128)">
      <use xlink:href="#CMSY10-6a" transform="scale(0.996264)"/>
      <use xlink:href="#CMMI12-68" transform="translate(27.674085 0) scale(0.996264)"/>
      <use xlink:href="#CMSY10-6a" transform="translate(83.828709 0) scale(0.996264)"/>
      <use xlink:href="#CMR17-32" transform="translate(111.502793 36.153639) scale(0.697382)"/>
     </g>
    </g>
    <g id="line2d_128">
     <path d="M 268.780048 172.847514 
L 281.580048 172.847514 
L 294.380048 172.847514 
" style="fill: none; stroke-dasharray: 3.7,1.6; stroke-dashoffset: 0; stroke: #808080"/>
    </g>
    <g id="text_17">
     <!-- $\arg(h)$ -->
     <g transform="translate(304.620048 177.327514) scale(0.128 -0.128)">
      <use xlink:href="#CMR17-61" transform="scale(0.996264)"/>
      <use xlink:href="#CMR17-72" transform="translate(45.690477 0) scale(0.996264)"/>
      <use xlink:href="#CMR17-67" transform="translate(80.971245 0) scale(0.996264)"/>
      <use xlink:href="#CMR17-28" transform="translate(127.962888 0) scale(0.996264)"/>
      <use xlink:href="#CMMI12-68" transform="translate(163.243656 0) scale(0.996264)"/>
      <use xlink:href="#CMR17-29" transform="translate(219.39828 0) scale(0.996264)"/>
     </g>
    </g>
    <g id="line2d_129">
     <path d="M 268.780048 191.395556 
L 281.580048 191.395556 
L 294.380048 191.395556 
" style="fill: none; stroke: #af0cc8; stroke-linecap: square"/>
    </g>
    <g id="text_18">
     <!-- lattice -->
     <g transform="translate(304.620048 195.875556) scale(0.128 -0.128)">
      <defs>
       <path id="CMR17-74" d="M 966 2560 
L 1862 2560 
L 1862 2725 
L 966 2725 
L 966 3904 
L 851 3904 
C 838 3245 614 2668 70 2668 
L 70 2560 
L 627 2560 
L 627 771 
C 627 650 627 -64 1370 -64 
C 1747 -64 1965 306 1965 777 
L 1965 1140 
L 1850 1140 
L 1850 783 
C 1850 344 1677 51 1408 51 
C 1222 51 966 178 966 758 
L 966 2560 
z
" transform="scale(0.015625)"/>
       <path id="CMR17-69" d="M 992 3909 
C 992 4049 877 4170 730 4170 
C 589 4170 467 4056 467 3909 
C 467 3769 582 3648 730 3648 
C 870 3648 992 3763 992 3909 
z
M 243 2706 
L 243 2541 
C 602 2541 653 2502 653 2197 
L 653 427 
C 653 184 627 153 218 153 
L 218 -13 
C 371 0 646 0 806 0 
C 960 0 1222 0 1370 -13 
L 1370 153 
C 992 153 979 191 979 420 
L 979 2776 
L 243 2706 
z
" transform="scale(0.015625)"/>
      </defs>
      <use xlink:href="#CMR17-6c" transform="scale(0.996264)"/>
      <use xlink:href="#CMR17-61" transform="translate(24.871058 0) scale(0.996264)"/>
      <use xlink:href="#CMR17-74" transform="translate(70.561536 0) scale(0.996264)"/>
      <use xlink:href="#CMR17-74" transform="translate(105.842303 0) scale(0.996264)"/>
      <use xlink:href="#CMR17-69" transform="translate(141.123071 0) scale(0.996264)"/>
      <use xlink:href="#CMR17-63" transform="translate(165.99413 0) scale(0.996264)"/>
      <use xlink:href="#CMR17-65" transform="translate(206.47979 0) scale(0.996264)"/>
     </g>
    </g>
    <g id="line2d_130">
     <path d="M 268.780048 209.235134 
L 281.580048 209.235134 
L 294.380048 209.235134 
" style="fill: none; stroke: #009e73; stroke-linecap: square"/>
    </g>
    <g id="text_19">
     <!-- analytic -->
     <g transform="translate(304.620048 213.715134) scale(0.128 -0.128)">
      <use xlink:href="#CMR17-61" transform="scale(0.996264)"/>
      <use xlink:href="#CMR17-6e" transform="translate(45.690477 0) scale(0.996264)"/>
      <use xlink:href="#CMR17-61" transform="translate(96.585847 0) scale(0.996264)"/>
      <use xlink:href="#CMR17-6c" transform="translate(142.276324 0) scale(0.996264)"/>
      <use xlink:href="#CMR17-79" transform="translate(167.147382 0) scale(0.996264)"/>
      <use xlink:href="#CMR17-74" transform="translate(215.440298 0) scale(0.996264)"/>
      <use xlink:href="#CMR17-69" transform="translate(250.721066 0) scale(0.996264)"/>
      <use xlink:href="#CMR17-63" transform="translate(275.592125 0) scale(0.996264)"/>
     </g>
    </g>
    <g id="line2d_131">
     <path d="M 268.780048 227.074712 
L 281.580048 227.074712 
L 294.380048 227.074712 
" style="fill: none; stroke: #210e80; stroke-linecap: square"/>
    </g>
    <g id="text_20">
     <!-- lattice $\newline$ preconditioned -->
     <g transform="translate(304.620048 231.554712) scale(0.128 -0.128)">
      <defs>
       <path id="CMR17-70" d="M 1408 -1063 
C 998 -1063 973 -1037 973 -789 
L 973 402 
C 1158 134 1427 -38 1766 -38 
C 2406 -38 3053 523 3053 1388 
C 3053 2191 2496 2802 1837 2802 
C 1453 2802 1139 2592 960 2338 
L 960 2802 
L 198 2732 
L 198 2567 
C 576 2567 634 2528 634 2223 
L 634 -789 
C 634 -1031 608 -1063 198 -1063 
L 198 -1228 
C 352 -1216 634 -1216 800 -1216 
C 966 -1216 1254 -1216 1408 -1228 
L 1408 -1063 
z
M 973 2012 
C 973 2102 973 2235 1222 2471 
C 1254 2497 1472 2688 1792 2688 
C 2259 2688 2643 2108 2643 1382 
C 2643 656 2234 64 1728 64 
C 1498 64 1248 172 1056 472 
C 973 612 973 650 973 752 
L 973 2012 
z
" transform="scale(0.015625)"/>
       <path id="CMR17-6f" d="M 2758 1356 
C 2758 2176 2163 2816 1466 2816 
C 768 2816 173 2176 173 1356 
C 173 551 768 -64 1466 -64 
C 2163 -64 2758 551 2758 1356 
z
M 1466 51 
C 1165 51 909 230 762 480 
C 602 767 582 1126 582 1408 
C 582 1677 595 2010 762 2298 
C 890 2509 1139 2714 1466 2714 
C 1754 2714 1997 2554 2150 2330 
C 2349 2029 2349 1607 2349 1408 
C 2349 1158 2336 775 2163 467 
C 1984 173 1709 51 1466 51 
z
" transform="scale(0.015625)"/>
      </defs>
      <use xlink:href="#CMR17-6c" transform="translate(14.94396 0) scale(0.996264)"/>
      <use xlink:href="#CMR17-61" transform="translate(39.815019 0) scale(0.996264)"/>
      <use xlink:href="#CMR17-74" transform="translate(85.505496 0) scale(0.996264)"/>
      <use xlink:href="#CMR17-74" transform="translate(120.786264 0) scale(0.996264)"/>
      <use xlink:href="#CMR17-69" transform="translate(156.067031 0) scale(0.996264)"/>
      <use xlink:href="#CMR17-63" transform="translate(180.93809 0) scale(0.996264)"/>
      <use xlink:href="#CMR17-65" transform="translate(221.42375 0) scale(0.996264)"/>
      <use xlink:href="#CMR17-70" transform="translate(0 -70.181278) scale(0.996264)"/>
      <use xlink:href="#CMR17-72" transform="translate(50.89537 -70.181278) scale(0.996264)"/>
      <use xlink:href="#CMR17-65" transform="translate(86.176138 -70.181278) scale(0.996264)"/>
      <use xlink:href="#CMR17-63" transform="translate(126.661798 -70.181278) scale(0.996264)"/>
      <use xlink:href="#CMR17-6f" transform="translate(167.147459 -70.181278) scale(0.996264)"/>
      <use xlink:href="#CMR17-6e" transform="translate(212.837936 -70.181278) scale(0.996264)"/>
      <use xlink:href="#CMR17-64" transform="translate(263.733305 -70.181278) scale(0.996264)"/>
      <use xlink:href="#CMR17-69" transform="translate(314.628675 -70.181278) scale(0.996264)"/>
      <use xlink:href="#CMR17-74" transform="translate(339.499734 -70.181278) scale(0.996264)"/>
      <use xlink:href="#CMR17-69" transform="translate(374.780501 -70.181278) scale(0.996264)"/>
      <use xlink:href="#CMR17-6f" transform="translate(399.65156 -70.181278) scale(0.996264)"/>
      <use xlink:href="#CMR17-6e" transform="translate(445.342037 -70.181278) scale(0.996264)"/>
      <use xlink:href="#CMR17-65" transform="translate(496.237407 -70.181278) scale(0.996264)"/>
      <use xlink:href="#CMR17-64" transform="translate(536.723067 -70.181278) scale(0.996264)"/>
     </g>
    </g>
   </g>
  </g>
  <g id="axes_2">
   <g id="matplotlib.axis_3">
    <g id="ytick_73">
     <g id="line2d_132">
      <defs>
       <path id="m7932589acd" d="M 0 0 
L -4 0 
" style="stroke: #000000; stroke-width: 0.8"/>
      </defs>
      <g>
       <use xlink:href="#m7932589acd" x="396.607826" y="257.509458" style="stroke: #000000; stroke-width: 0.8"/>
      </g>
     </g>
     <g id="text_21">
      <!-- $-\pi$ -->
      <g transform="translate(400.107826 262.69832) scale(0.15 -0.15)">
       <defs>
        <path id="CMMI12-19" d="M 1658 2408 
L 2381 2408 
C 2208 1692 2099 1226 2099 716 
C 2099 626 2099 -64 2362 -64 
C 2496 -64 2611 57 2611 166 
C 2611 197 2611 210 2566 306 
C 2394 747 2394 1296 2394 1341 
C 2394 1379 2394 1832 2528 2408 
L 3245 2408 
C 3328 2408 3539 2408 3539 2612 
C 3539 2752 3418 2752 3302 2752 
L 1197 2752 
C 1050 2752 832 2752 538 2440 
C 371 2254 166 1916 166 1878 
C 166 1840 198 1827 237 1827 
C 282 1827 288 1846 320 1884 
C 653 2408 986 2408 1146 2408 
L 1510 2408 
C 1370 1929 1210 1373 685 256 
C 634 154 634 140 634 102 
C 634 -32 749 -64 806 -64 
C 992 -64 1043 102 1120 370 
C 1222 696 1222 709 1286 964 
L 1658 2408 
z
" transform="scale(0.015625)"/>
       </defs>
       <use xlink:href="#CMSY10-0" transform="scale(0.996264)"/>
       <use xlink:href="#CMMI12-19" transform="translate(77.487468 0) scale(0.996264)"/>
      </g>
     </g>
    </g>
    <g id="ytick_74">
     <g id="line2d_133">
      <g>
       <use xlink:href="#m7932589acd" x="396.607826" y="196.229309" style="stroke: #000000; stroke-width: 0.8"/>
      </g>
     </g>
     <g id="text_22">
      <!-- $-\pi/2$ -->
      <g transform="translate(400.107826 201.833294) scale(0.15 -0.15)">
       <defs>
        <path id="CMMI12-3d" d="M 2746 4562 
C 2746 4569 2784 4666 2784 4678 
C 2784 4755 2720 4800 2669 4800 
C 2637 4800 2579 4800 2528 4659 
L 384 -1363 
C 384 -1370 346 -1465 346 -1478 
C 346 -1555 410 -1600 461 -1600 
C 499 -1600 557 -1593 602 -1459 
L 2746 4562 
z
" transform="scale(0.015625)"/>
       </defs>
       <use xlink:href="#CMSY10-0" transform="scale(0.996264)"/>
       <use xlink:href="#CMMI12-19" transform="translate(77.487468 0) scale(0.996264)"/>
       <use xlink:href="#CMMI12-3d" transform="translate(136.398068 0) scale(0.996264)"/>
       <use xlink:href="#CMR17-32" transform="translate(185.172987 0) scale(0.996264)"/>
      </g>
     </g>
    </g>
    <g id="ytick_75">
     <g id="line2d_134">
      <g>
       <use xlink:href="#m7932589acd" x="396.607826" y="134.94916" style="stroke: #000000; stroke-width: 0.8"/>
      </g>
     </g>
     <g id="text_23">
      <!-- $0$ -->
      <g transform="translate(400.107826 140.138022) scale(0.15 -0.15)">
       <use xlink:href="#CMR17-30" transform="scale(0.996264)"/>
      </g>
     </g>
    </g>
    <g id="ytick_76">
     <g id="line2d_135">
      <g>
       <use xlink:href="#m7932589acd" x="396.607826" y="73.669011" style="stroke: #000000; stroke-width: 0.8"/>
      </g>
     </g>
     <g id="text_24">
      <!-- $\pi/2$ -->
      <g transform="translate(400.107826 79.272996) scale(0.15 -0.15)">
       <use xlink:href="#CMMI12-19" transform="scale(0.996264)"/>
       <use xlink:href="#CMMI12-3d" transform="translate(58.910601 0) scale(0.996264)"/>
       <use xlink:href="#CMR17-32" transform="translate(107.68552 0) scale(0.996264)"/>
      </g>
     </g>
    </g>
    <g id="ytick_77">
     <g id="line2d_136">
      <g>
       <use xlink:href="#m7932589acd" x="396.607826" y="12.388862" style="stroke: #000000; stroke-width: 0.8"/>
      </g>
     </g>
     <g id="text_25">
      <!-- $\pi$ -->
      <g transform="translate(400.107826 17.577725) scale(0.15 -0.15)">
       <use xlink:href="#CMMI12-19" transform="scale(0.996264)"/>
      </g>
     </g>
    </g>
    <g id="text_26">
     <!-- Arg(h) [rad] -->
     <g transform="translate(427.244832 93.547433) rotate(-270) scale(0.16 -0.16)">
      <defs>
       <path id="CMR17-68" d="M 2656 1933 
C 2656 2259 2592 2790 1837 2790 
C 1312 2790 1056 2368 979 2157 
L 973 2157 
L 973 4396 
L 211 4326 
L 211 4160 
C 589 4160 646 4122 646 3817 
L 646 426 
C 646 184 621 153 211 153 
L 211 -13 
C 365 0 646 0 813 0 
C 979 0 1267 0 1421 -13 
L 1421 153 
C 1011 153 986 178 986 428 
L 986 1658 
C 986 2247 1344 2688 1792 2688 
C 2266 2688 2317 2266 2317 1958 
L 2317 428 
C 2317 184 2291 153 1882 153 
L 1882 -13 
C 2035 0 2317 0 2483 0 
C 2650 0 2938 0 3091 -13 
L 3091 153 
C 2682 153 2656 178 2656 428 
L 2656 1933 
z
" transform="scale(0.015625)"/>
      </defs>
      <use xlink:href="#CMR17-41" transform="scale(0.996264)"/>
      <use xlink:href="#CMR17-72" transform="translate(69.07243 0) scale(0.996264)"/>
      <use xlink:href="#CMR17-67" transform="translate(104.353198 0) scale(0.996264)"/>
      <use xlink:href="#CMR17-28" transform="translate(150.043675 0) scale(0.996264)"/>
      <use xlink:href="#CMR17-68" transform="translate(185.324443 0) scale(0.996264)"/>
      <use xlink:href="#CMR17-29" transform="translate(236.219812 0) scale(0.996264)"/>
      <use xlink:href="#CMR17-5b" transform="translate(301.576546 0) scale(0.996264)"/>
      <use xlink:href="#CMR17-72" transform="translate(326.447605 0) scale(0.996264)"/>
      <use xlink:href="#CMR17-61" transform="translate(361.728373 0) scale(0.996264)"/>
      <use xlink:href="#CMR17-64" transform="translate(407.41885 0) scale(0.996264)"/>
      <use xlink:href="#CMR17-5d" transform="translate(458.31422 0) scale(0.996264)"/>
     </g>
    </g>
   </g>
   <g id="line2d_137">
    <path d="M -1 190.164053 
L 50.471489 190.351368 
L 82.306854 190.656296 
L 128.230926 191.202091 
L 139.079598 191.039124 
L 147.903845 190.737269 
L 162.398106 189.841223 
L 168.536706 189.322811 
L 174.018248 188.792819 
L 179.783048 188.174001 
L 186.177103 187.368244 
L 191.564569 186.613166 
L 200.851005 185.027499 
L 210.568719 182.942456 
L 214.253334 181.996551 
L 221.782117 179.782211 
L 228.776831 177.332861 
L 232.805075 175.72862 
L 238.438922 173.221549 
L 242.604714 171.180401 
L 246.651989 169.026658 
L 251.044312 166.496074 
L 255.927839 163.425869 
L 260.909114 159.972803 
L 264.948301 156.867163 
L 268.687368 153.737116 
L 272.19429 150.499311 
L 275.721147 146.944089 
L 279.01459 143.307156 
L 282.418904 139.208631 
L 286.104111 134.416 
L 290.361625 128.497193 
L 302.631934 111.18659 
L 306.089076 106.853782 
L 309.273322 103.213472 
L 312.334784 100.046916 
L 315.35168 97.243266 
L 318.377809 94.732534 
L 321.457085 92.465537 
L 324.629773 90.405644 
L 327.936561 88.52429 
L 331.421602 86.798494 
L 335.134735 85.209645 
L 339.132913 83.743021 
L 343.483239 82.386946 
L 348.264078 81.132939 
L 353.569041 79.975141 
L 359.509148 78.910521 
L 366.218874 77.938446 
L 373.865226 77.060323 
L 382.666079 76.278859 
L 392.925054 75.597195 
L 396.607826 75.399415 
L 396.607826 75.399415 
" clip-path="url(#pe177631192)" style="fill: none; stroke-dasharray: 3.7,1.6; stroke-dashoffset: 0; stroke: #009e73; stroke-opacity: 0.7"/>
   </g>
   <g id="line2d_138">
    <path d="M -1 171.580968 
L 32.267841 171.611893 
L 69.956658 182.082447 
L 87.48096 184.869824 
L 99.023923 186.076679 
L 107.645475 186.735116 
L 120.260583 187.386662 
L 133.279293 187.725556 
L 145.334292 187.762728 
L 156.143412 187.56541 
L 165.780005 187.1845 
L 175.473702 186.570843 
L 183.859879 185.813486 
L 191.266111 184.931479 
L 198.451747 183.845327 
L 204.841238 182.653714 
L 210.983638 181.275059 
L 216.512089 179.812535 
L 221.823144 178.188368 
L 227.130932 176.33302 
L 232.335467 174.275119 
L 237.5518 171.96635 
L 242.679211 169.450733 
L 247.786277 166.695826 
L 252.78939 163.742733 
L 257.543053 160.679183 
L 261.972846 157.561483 
L 266.046458 154.426005 
L 269.822484 151.243264 
L 273.406593 147.932026 
L 276.871858 144.423829 
L 280.268663 140.666121 
L 283.721059 136.513767 
L 287.548586 131.545216 
L 292.730337 124.428466 
L 300.471855 113.803551 
L 304.159425 109.148466 
L 307.376106 105.440304 
L 310.378973 102.312511 
L 313.292361 99.594399 
L 316.187781 97.19438 
L 319.115249 95.056096 
L 322.092898 93.155521 
L 325.170268 91.455132 
L 328.363515 89.944974 
L 331.709382 88.609733 
L 335.222077 87.448794 
L 338.916177 86.463317 
L 342.801923 85.657856 
L 346.882293 85.040374 
L 351.132849 84.623052 
L 355.51891 84.416675 
L 359.977176 84.429725 
L 364.435133 84.664699 
L 368.81192 85.11707 
L 373.024341 85.774204 
L 377.007755 86.618317 
L 380.707105 87.626641 
L 384.087129 88.775126 
L 387.124066 90.038202 
L 389.807849 91.39112 
L 392.138812 92.810751 
L 394.123894 94.2752 
L 395.777995 95.766675 
L 396.607072 96.654531 
L 396.607072 96.654531 
" clip-path="url(#pe177631192)" style="fill: none; stroke-dasharray: 3.7,1.6; stroke-dashoffset: 0; stroke: #af0cc8; stroke-opacity: 0.7"/>
   </g>
   <g id="line2d_139">
    <path d="M -1 171.580968 
L 32.267841 171.611893 
L 69.956658 182.082447 
L 87.48096 184.869824 
L 99.023923 186.076679 
L 107.645475 186.735116 
L 120.260583 187.386662 
L 133.279293 187.725556 
L 145.334292 187.762728 
L 156.143412 187.56541 
L 165.780005 187.1845 
L 175.473702 186.570843 
L 183.859879 185.813486 
L 191.266111 184.931479 
L 198.451747 183.845327 
L 204.841238 182.653714 
L 210.983638 181.275059 
L 216.512089 179.812535 
L 221.823144 178.188368 
L 227.130932 176.33302 
L 232.335467 174.275119 
L 237.5518 171.96635 
L 242.679211 169.450733 
L 247.786277 166.695826 
L 252.78939 163.742733 
L 257.543053 160.679183 
L 261.972846 157.561483 
L 266.046458 154.426005 
L 269.822484 151.243264 
L 273.406593 147.932026 
L 276.871858 144.423829 
L 280.268663 140.666121 
L 283.721059 136.513767 
L 287.548586 131.545216 
L 292.730337 124.428466 
L 300.471855 113.803551 
L 304.159425 109.148466 
L 307.376106 105.440304 
L 310.378973 102.312511 
L 313.292361 99.594399 
L 316.187781 97.19438 
L 319.115249 95.056096 
L 322.092898 93.155521 
L 325.170268 91.455132 
L 328.363515 89.944974 
L 331.709382 88.609733 
L 335.222077 87.448794 
L 338.916177 86.463317 
L 342.801923 85.657856 
L 346.882293 85.040374 
L 351.132849 84.623052 
L 355.51891 84.416675 
L 359.977176 84.429725 
L 364.435133 84.664699 
L 368.81192 85.11707 
L 373.024341 85.774204 
L 377.007755 86.618317 
L 380.707105 87.626641 
L 384.087129 88.775126 
L 387.124066 90.038202 
L 389.807849 91.39112 
L 392.138812 92.810751 
L 394.123894 94.2752 
L 395.777995 95.766675 
L 396.607072 96.654531 
L 396.607072 96.654531 
" clip-path="url(#pe177631192)" style="fill: none; stroke-dasharray: 3.7,1.6; stroke-dashoffset: 0; stroke: #210e80; stroke-opacity: 0.7"/>
   </g>
   <g id="patch_7">
    <path d="M 60.719428 257.509458 
L 60.719428 12.388862 
" style="fill: none; stroke: #000000; stroke-width: 0.8; stroke-linejoin: miter; stroke-linecap: square"/>
   </g>
   <g id="patch_8">
    <path d="M 396.607826 257.509458 
L 396.607826 12.388862 
" style="fill: none; stroke: #000000; stroke-width: 0.8; stroke-linejoin: miter; stroke-linecap: square"/>
   </g>
   <g id="patch_9">
    <path d="M 60.719428 257.509458 
L 396.607826 257.509458 
" style="fill: none; stroke: #000000; stroke-width: 0.8; stroke-linejoin: miter; stroke-linecap: square"/>
   </g>
   <g id="patch_10">
    <path d="M 60.719428 12.388862 
L 396.607826 12.388862 
" style="fill: none; stroke: #000000; stroke-width: 0.8; stroke-linejoin: miter; stroke-linecap: square"/>
   </g>
  </g>
 </g>
 <defs>
  <clipPath id="pe177631192">
   <rect x="60.719428" y="12.388862" width="335.888397" height="245.120595"/>
  </clipPath>
 </defs>
</svg>
